ISO-10303-21;
HEADER;
/* Generated by software containing ST-Developer
 * from STEP Tools, Inc. (www.steptools.com) 
 */
/* OPTION: using custom renumber hook */

FILE_DESCRIPTION(
/* description */ ('STEP AP242 Edition 2',
'CAx-IF Rec.Pracs.---Representation and Presentation of Product Manufa
cturing Information (PMI)---4.0---2014-10-13',
'CAx-IF Rec.Pracs.---3D Tessellated Geometry---0.4---2014-09-14','2;1',
'CAx-IF Rec.Pracs.---User Defined Attributes---1.5---2016-08-15'),
/* implementation_level */ '2;1');

FILE_NAME(
/* name */ 'Part Studio 1 - Part 2',
/* time_stamp */ '2026-10-03T06:34:01Z',
/* author */ (''),
/* organization */ (''),
/* preprocessor_version */ 'ST-DEVELOPER v20',
/* originating_system */ 'ONSHAPE BY PTC INC, 1.221',
/* authorisation */ '  ');

FILE_SCHEMA (('AP242_MANAGED_MODEL_BASED_3D_ENGINEERING_MIM_LF { 1 0 10303 442 3 1 4 }'));
ENDSEC;

DATA;
#10=SHAPE_REPRESENTATION_RELATIONSHIP('','',#359,#11);
#11=ADVANCED_BREP_SHAPE_REPRESENTATION('',(#357),#589);
#12=CIRCLE('',#363,0.0025);
#13=CIRCLE('',#364,0.0025);
#14=CIRCLE('',#367,0.0025);
#15=CIRCLE('',#368,0.0025);
#16=CIRCLE('',#371,0.0025);
#17=CIRCLE('',#372,0.0025);
#18=CIRCLE('',#378,0.0016);
#19=CIRCLE('',#379,0.0016);
#20=CIRCLE('',#381,0.0016);
#21=CIRCLE('',#382,0.0016);
#22=CIRCLE('',#384,0.0016);
#23=CIRCLE('',#385,0.0016);
#24=CIRCLE('',#387,0.0025);
#25=CIRCLE('',#388,0.0025);
#26=CIRCLE('',#391,0.0016);
#27=CIRCLE('',#392,0.0016);
#28=CYLINDRICAL_SURFACE('',#362,0.0025);
#29=CYLINDRICAL_SURFACE('',#366,0.0025);
#30=CYLINDRICAL_SURFACE('',#370,0.0025);
#31=CYLINDRICAL_SURFACE('',#377,0.0016);
#32=CYLINDRICAL_SURFACE('',#380,0.0016);
#33=CYLINDRICAL_SURFACE('',#383,0.0016);
#34=CYLINDRICAL_SURFACE('',#386,0.0025);
#35=CYLINDRICAL_SURFACE('',#390,0.0016);
#36=ORIENTED_EDGE('',*,*,#124,.T.);
#37=ORIENTED_EDGE('',*,*,#125,.F.);
#38=ORIENTED_EDGE('',*,*,#126,.F.);
#39=ORIENTED_EDGE('',*,*,#127,.T.);
#40=ORIENTED_EDGE('',*,*,#128,.T.);
#41=ORIENTED_EDGE('',*,*,#129,.F.);
#42=ORIENTED_EDGE('',*,*,#130,.F.);
#43=ORIENTED_EDGE('',*,*,#125,.T.);
#44=ORIENTED_EDGE('',*,*,#131,.T.);
#45=ORIENTED_EDGE('',*,*,#132,.F.);
#46=ORIENTED_EDGE('',*,*,#133,.F.);
#47=ORIENTED_EDGE('',*,*,#129,.T.);
#48=ORIENTED_EDGE('',*,*,#134,.T.);
#49=ORIENTED_EDGE('',*,*,#135,.F.);
#50=ORIENTED_EDGE('',*,*,#136,.F.);
#51=ORIENTED_EDGE('',*,*,#132,.T.);
#52=ORIENTED_EDGE('',*,*,#137,.F.);
#53=ORIENTED_EDGE('',*,*,#138,.F.);
#54=ORIENTED_EDGE('',*,*,#139,.T.);
#55=ORIENTED_EDGE('',*,*,#135,.T.);
#56=ORIENTED_EDGE('',*,*,#140,.T.);
#57=ORIENTED_EDGE('',*,*,#141,.F.);
#58=ORIENTED_EDGE('',*,*,#142,.F.);
#59=ORIENTED_EDGE('',*,*,#138,.T.);
#60=ORIENTED_EDGE('',*,*,#143,.F.);
#61=ORIENTED_EDGE('',*,*,#144,.F.);
#62=ORIENTED_EDGE('',*,*,#145,.T.);
#63=ORIENTED_EDGE('',*,*,#141,.T.);
#64=ORIENTED_EDGE('',*,*,#146,.F.);
#65=ORIENTED_EDGE('',*,*,#147,.F.);
#66=ORIENTED_EDGE('',*,*,#148,.T.);
#67=ORIENTED_EDGE('',*,*,#149,.T.);
#68=ORIENTED_EDGE('',*,*,#150,.T.);
#69=ORIENTED_EDGE('',*,*,#151,.F.);
#70=ORIENTED_EDGE('',*,*,#152,.F.);
#71=ORIENTED_EDGE('',*,*,#147,.T.);
#72=ORIENTED_EDGE('',*,*,#153,.T.);
#73=ORIENTED_EDGE('',*,*,#154,.F.);
#74=ORIENTED_EDGE('',*,*,#155,.F.);
#75=ORIENTED_EDGE('',*,*,#151,.T.);
#76=ORIENTED_EDGE('',*,*,#156,.T.);
#77=ORIENTED_EDGE('',*,*,#157,.F.);
#78=ORIENTED_EDGE('',*,*,#158,.T.);
#79=ORIENTED_EDGE('',*,*,#159,.F.);
#80=ORIENTED_EDGE('',*,*,#160,.T.);
#81=ORIENTED_EDGE('',*,*,#161,.F.);
#82=ORIENTED_EDGE('',*,*,#162,.T.);
#83=ORIENTED_EDGE('',*,*,#127,.F.);
#84=ORIENTED_EDGE('',*,*,#163,.F.);
#85=ORIENTED_EDGE('',*,*,#144,.T.);
#86=ORIENTED_EDGE('',*,*,#164,.F.);
#87=ORIENTED_EDGE('',*,*,#149,.F.);
#88=ORIENTED_EDGE('',*,*,#165,.T.);
#89=ORIENTED_EDGE('',*,*,#154,.T.);
#90=ORIENTED_EDGE('',*,*,#166,.T.);
#91=ORIENTED_EDGE('',*,*,#167,.F.);
#92=ORIENTED_EDGE('',*,*,#148,.F.);
#93=ORIENTED_EDGE('',*,*,#152,.T.);
#94=ORIENTED_EDGE('',*,*,#155,.T.);
#95=ORIENTED_EDGE('',*,*,#165,.F.);
#96=ORIENTED_EDGE('',*,*,#126,.T.);
#97=ORIENTED_EDGE('',*,*,#130,.T.);
#98=ORIENTED_EDGE('',*,*,#133,.T.);
#99=ORIENTED_EDGE('',*,*,#136,.T.);
#100=ORIENTED_EDGE('',*,*,#139,.F.);
#101=ORIENTED_EDGE('',*,*,#142,.T.);
#102=ORIENTED_EDGE('',*,*,#145,.F.);
#103=ORIENTED_EDGE('',*,*,#163,.T.);
#104=ORIENTED_EDGE('',*,*,#160,.F.);
#105=ORIENTED_EDGE('',*,*,#158,.F.);
#106=ORIENTED_EDGE('',*,*,#156,.F.);
#107=ORIENTED_EDGE('',*,*,#166,.F.);
#108=ORIENTED_EDGE('',*,*,#146,.T.);
#109=ORIENTED_EDGE('',*,*,#164,.T.);
#110=ORIENTED_EDGE('',*,*,#153,.F.);
#111=ORIENTED_EDGE('',*,*,#150,.F.);
#112=ORIENTED_EDGE('',*,*,#124,.F.);
#113=ORIENTED_EDGE('',*,*,#162,.F.);
#114=ORIENTED_EDGE('',*,*,#143,.T.);
#115=ORIENTED_EDGE('',*,*,#140,.F.);
#116=ORIENTED_EDGE('',*,*,#137,.T.);
#117=ORIENTED_EDGE('',*,*,#134,.F.);
#118=ORIENTED_EDGE('',*,*,#131,.F.);
#119=ORIENTED_EDGE('',*,*,#128,.F.);
#120=ORIENTED_EDGE('',*,*,#161,.T.);
#121=ORIENTED_EDGE('',*,*,#159,.T.);
#122=ORIENTED_EDGE('',*,*,#157,.T.);
#123=ORIENTED_EDGE('',*,*,#167,.T.);
#124=EDGE_CURVE('',#168,#169,#200,.T.);
#125=EDGE_CURVE('',#170,#169,#201,.T.);
#126=EDGE_CURVE('',#171,#170,#202,.T.);
#127=EDGE_CURVE('',#171,#168,#203,.T.);
#128=EDGE_CURVE('',#169,#172,#12,.T.);
#129=EDGE_CURVE('',#173,#172,#204,.T.);
#130=EDGE_CURVE('',#170,#173,#13,.T.);
#131=EDGE_CURVE('',#172,#174,#205,.T.);
#132=EDGE_CURVE('',#175,#174,#206,.T.);
#133=EDGE_CURVE('',#173,#175,#207,.T.);
#134=EDGE_CURVE('',#174,#176,#14,.T.);
#135=EDGE_CURVE('',#177,#176,#208,.T.);
#136=EDGE_CURVE('',#175,#177,#15,.T.);
#137=EDGE_CURVE('',#178,#176,#209,.T.);
#138=EDGE_CURVE('',#179,#178,#210,.T.);
#139=EDGE_CURVE('',#179,#177,#211,.T.);
#140=EDGE_CURVE('',#178,#180,#16,.T.);
#141=EDGE_CURVE('',#181,#180,#212,.T.);
#142=EDGE_CURVE('',#179,#181,#17,.T.);
#143=EDGE_CURVE('',#182,#180,#213,.T.);
#144=EDGE_CURVE('',#183,#182,#214,.T.);
#145=EDGE_CURVE('',#183,#181,#215,.T.);
#146=EDGE_CURVE('',#184,#185,#216,.T.);
#147=EDGE_CURVE('',#186,#184,#217,.T.);
#148=EDGE_CURVE('',#186,#187,#218,.T.);
#149=EDGE_CURVE('',#187,#185,#219,.T.);
#150=EDGE_CURVE('',#184,#188,#220,.T.);
#151=EDGE_CURVE('',#189,#188,#221,.T.);
#152=EDGE_CURVE('',#186,#189,#222,.T.);
#153=EDGE_CURVE('',#188,#190,#223,.T.);
#154=EDGE_CURVE('',#191,#190,#224,.T.);
#155=EDGE_CURVE('',#189,#191,#225,.T.);
#156=EDGE_CURVE('',#192,#192,#18,.T.);
#157=EDGE_CURVE('',#193,#193,#19,.T.);
#158=EDGE_CURVE('',#194,#194,#20,.T.);
#159=EDGE_CURVE('',#195,#195,#21,.T.);
#160=EDGE_CURVE('',#196,#196,#22,.T.);
#161=EDGE_CURVE('',#197,#197,#23,.T.);
#162=EDGE_CURVE('',#182,#168,#24,.T.);
#163=EDGE_CURVE('',#183,#171,#25,.T.);
#164=EDGE_CURVE('',#185,#190,#226,.T.);
#165=EDGE_CURVE('',#187,#191,#227,.T.);
#166=EDGE_CURVE('',#198,#198,#26,.T.);
#167=EDGE_CURVE('',#199,#199,#27,.T.);
#168=VERTEX_POINT('',#496);
#169=VERTEX_POINT('',#497);
#170=VERTEX_POINT('',#499);
#171=VERTEX_POINT('',#501);
#172=VERTEX_POINT('',#505);
#173=VERTEX_POINT('',#507);
#174=VERTEX_POINT('',#511);
#175=VERTEX_POINT('',#513);
#176=VERTEX_POINT('',#517);
#177=VERTEX_POINT('',#519);
#178=VERTEX_POINT('',#523);
#179=VERTEX_POINT('',#525);
#180=VERTEX_POINT('',#529);
#181=VERTEX_POINT('',#531);
#182=VERTEX_POINT('',#535);
#183=VERTEX_POINT('',#537);
#184=VERTEX_POINT('',#541);
#185=VERTEX_POINT('',#542);
#186=VERTEX_POINT('',#544);
#187=VERTEX_POINT('',#546);
#188=VERTEX_POINT('',#550);
#189=VERTEX_POINT('',#552);
#190=VERTEX_POINT('',#556);
#191=VERTEX_POINT('',#558);
#192=VERTEX_POINT('',#562);
#193=VERTEX_POINT('',#564);
#194=VERTEX_POINT('',#567);
#195=VERTEX_POINT('',#569);
#196=VERTEX_POINT('',#572);
#197=VERTEX_POINT('',#574);
#198=VERTEX_POINT('',#583);
#199=VERTEX_POINT('',#585);
#200=LINE('',#495,#228);
#201=LINE('',#498,#229);
#202=LINE('',#500,#230);
#203=LINE('',#502,#231);
#204=LINE('',#506,#232);
#205=LINE('',#510,#233);
#206=LINE('',#512,#234);
#207=LINE('',#514,#235);
#208=LINE('',#518,#236);
#209=LINE('',#522,#237);
#210=LINE('',#524,#238);
#211=LINE('',#526,#239);
#212=LINE('',#530,#240);
#213=LINE('',#534,#241);
#214=LINE('',#536,#242);
#215=LINE('',#538,#243);
#216=LINE('',#540,#244);
#217=LINE('',#543,#245);
#218=LINE('',#545,#246);
#219=LINE('',#547,#247);
#220=LINE('',#549,#248);
#221=LINE('',#551,#249);
#222=LINE('',#553,#250);
#223=LINE('',#555,#251);
#224=LINE('',#557,#252);
#225=LINE('',#559,#253);
#226=LINE('',#579,#254);
#227=LINE('',#580,#255);
#228=VECTOR('',#399,1.);
#229=VECTOR('',#400,1.);
#230=VECTOR('',#401,1.);
#231=VECTOR('',#402,1.);
#232=VECTOR('',#407,1.);
#233=VECTOR('',#412,1.);
#234=VECTOR('',#413,1.);
#235=VECTOR('',#414,1.);
#236=VECTOR('',#419,1.);
#237=VECTOR('',#424,1.);
#238=VECTOR('',#425,1.);
#239=VECTOR('',#426,1.);
#240=VECTOR('',#431,1.);
#241=VECTOR('',#436,1.);
#242=VECTOR('',#437,1.);
#243=VECTOR('',#438,1.);
#244=VECTOR('',#441,1.);
#245=VECTOR('',#442,1.);
#246=VECTOR('',#443,1.);
#247=VECTOR('',#444,1.);
#248=VECTOR('',#447,1.);
#249=VECTOR('',#448,1.);
#250=VECTOR('',#449,1.);
#251=VECTOR('',#452,1.);
#252=VECTOR('',#453,1.);
#253=VECTOR('',#454,1.);
#254=VECTOR('',#481,1.);
#255=VECTOR('',#482,1.);
#256=EDGE_LOOP('',(#36,#37,#38,#39));
#257=EDGE_LOOP('',(#40,#41,#42,#43));
#258=EDGE_LOOP('',(#44,#45,#46,#47));
#259=EDGE_LOOP('',(#48,#49,#50,#51));
#260=EDGE_LOOP('',(#52,#53,#54,#55));
#261=EDGE_LOOP('',(#56,#57,#58,#59));
#262=EDGE_LOOP('',(#60,#61,#62,#63));
#263=EDGE_LOOP('',(#64,#65,#66,#67));
#264=EDGE_LOOP('',(#68,#69,#70,#71));
#265=EDGE_LOOP('',(#72,#73,#74,#75));
#266=EDGE_LOOP('',(#76));
#267=EDGE_LOOP('',(#77));
#268=EDGE_LOOP('',(#78));
#269=EDGE_LOOP('',(#79));
#270=EDGE_LOOP('',(#80));
#271=EDGE_LOOP('',(#81));
#272=EDGE_LOOP('',(#82,#83,#84,#85));
#273=EDGE_LOOP('',(#86,#87,#88,#89));
#274=EDGE_LOOP('',(#90));
#275=EDGE_LOOP('',(#91));
#276=EDGE_LOOP('',(#92,#93,#94,#95));
#277=EDGE_LOOP('',(#96,#97,#98,#99,#100,#101,#102,#103));
#278=EDGE_LOOP('',(#104));
#279=EDGE_LOOP('',(#105));
#280=EDGE_LOOP('',(#106));
#281=EDGE_LOOP('',(#107));
#282=EDGE_LOOP('',(#108,#109,#110,#111));
#283=EDGE_LOOP('',(#112,#113,#114,#115,#116,#117,#118,#119));
#284=EDGE_LOOP('',(#120));
#285=EDGE_LOOP('',(#121));
#286=EDGE_LOOP('',(#122));
#287=EDGE_LOOP('',(#123));
#288=FACE_BOUND('',#256,.T.);
#289=FACE_BOUND('',#257,.T.);
#290=FACE_BOUND('',#258,.T.);
#291=FACE_BOUND('',#259,.T.);
#292=FACE_BOUND('',#260,.T.);
#293=FACE_BOUND('',#261,.T.);
#294=FACE_BOUND('',#262,.T.);
#295=FACE_BOUND('',#263,.T.);
#296=FACE_BOUND('',#264,.T.);
#297=FACE_BOUND('',#265,.T.);
#298=FACE_BOUND('',#266,.T.);
#299=FACE_BOUND('',#267,.T.);
#300=FACE_BOUND('',#268,.T.);
#301=FACE_BOUND('',#269,.T.);
#302=FACE_BOUND('',#270,.T.);
#303=FACE_BOUND('',#271,.T.);
#304=FACE_BOUND('',#272,.T.);
#305=FACE_BOUND('',#273,.T.);
#306=FACE_BOUND('',#274,.T.);
#307=FACE_BOUND('',#275,.T.);
#308=FACE_BOUND('',#276,.T.);
#309=FACE_BOUND('',#277,.T.);
#310=FACE_BOUND('',#278,.T.);
#311=FACE_BOUND('',#279,.T.);
#312=FACE_BOUND('',#280,.T.);
#313=FACE_BOUND('',#281,.T.);
#314=FACE_BOUND('',#282,.T.);
#315=FACE_BOUND('',#283,.T.);
#316=FACE_BOUND('',#284,.T.);
#317=FACE_BOUND('',#285,.T.);
#318=FACE_BOUND('',#286,.T.);
#319=FACE_BOUND('',#287,.T.);
#320=PLANE('',#361);
#321=PLANE('',#365);
#322=PLANE('',#369);
#323=PLANE('',#373);
#324=PLANE('',#374);
#325=PLANE('',#375);
#326=PLANE('',#376);
#327=PLANE('',#389);
#328=PLANE('',#393);
#329=PLANE('',#394);
#330=ADVANCED_FACE('',(#288),#320,.F.);
#331=ADVANCED_FACE('',(#289),#28,.T.);
#332=ADVANCED_FACE('',(#290),#321,.F.);
#333=ADVANCED_FACE('',(#291),#29,.T.);
#334=ADVANCED_FACE('',(#292),#322,.T.);
#335=ADVANCED_FACE('',(#293),#30,.T.);
#336=ADVANCED_FACE('',(#294),#323,.T.);
#337=ADVANCED_FACE('',(#295),#324,.T.);
#338=ADVANCED_FACE('',(#296),#325,.F.);
#339=ADVANCED_FACE('',(#297),#326,.F.);
#340=ADVANCED_FACE('',(#298,#299),#31,.F.);
#341=ADVANCED_FACE('',(#300,#301),#32,.F.);
#342=ADVANCED_FACE('',(#302,#303),#33,.F.);
#343=ADVANCED_FACE('',(#304),#34,.T.);
#344=ADVANCED_FACE('',(#305),#327,.T.);
#345=ADVANCED_FACE('',(#306,#307),#35,.F.);
#346=ADVANCED_FACE('',(#308,#309,#310,#311,#312,#313),#328,.T.);
#347=ADVANCED_FACE('',(#314,#315,#316,#317,#318,#319),#329,.F.);
#348=CLOSED_SHELL('',(#330,#331,#332,#333,#334,#335,#336,#337,#338,#339,
#340,#341,#342,#343,#344,#345,#346,#347));
#349=STYLED_ITEM('',(#350),#357);
#350=PRESENTATION_STYLE_ASSIGNMENT((#351));
#351=SURFACE_STYLE_USAGE(.BOTH.,#352);
#352=SURFACE_SIDE_STYLE('',(#353));
#353=SURFACE_STYLE_FILL_AREA(#354);
#354=FILL_AREA_STYLE('',(#355));
#355=FILL_AREA_STYLE_COLOUR('',#356);
#356=COLOUR_RGB('',0.615686274509804,0.811764705882353,0.929411764705882);
#357=MANIFOLD_SOLID_BREP('Part 2',#348);
#358=SHAPE_DEFINITION_REPRESENTATION(#594,#359);
#359=SHAPE_REPRESENTATION('Part 2',(#360),#589);
#360=AXIS2_PLACEMENT_3D('',#493,#395,#396);
#361=AXIS2_PLACEMENT_3D('',#494,#397,#398);
#362=AXIS2_PLACEMENT_3D('',#503,#403,#404);
#363=AXIS2_PLACEMENT_3D('',#504,#405,#406);
#364=AXIS2_PLACEMENT_3D('',#508,#408,#409);
#365=AXIS2_PLACEMENT_3D('',#509,#410,#411);
#366=AXIS2_PLACEMENT_3D('',#515,#415,#416);
#367=AXIS2_PLACEMENT_3D('',#516,#417,#418);
#368=AXIS2_PLACEMENT_3D('',#520,#420,#421);
#369=AXIS2_PLACEMENT_3D('',#521,#422,#423);
#370=AXIS2_PLACEMENT_3D('',#527,#427,#428);
#371=AXIS2_PLACEMENT_3D('',#528,#429,#430);
#372=AXIS2_PLACEMENT_3D('',#532,#432,#433);
#373=AXIS2_PLACEMENT_3D('',#533,#434,#435);
#374=AXIS2_PLACEMENT_3D('',#539,#439,#440);
#375=AXIS2_PLACEMENT_3D('',#548,#445,#446);
#376=AXIS2_PLACEMENT_3D('',#554,#450,#451);
#377=AXIS2_PLACEMENT_3D('',#560,#455,#456);
#378=AXIS2_PLACEMENT_3D('',#561,#457,#458);
#379=AXIS2_PLACEMENT_3D('',#563,#459,#460);
#380=AXIS2_PLACEMENT_3D('',#565,#461,#462);
#381=AXIS2_PLACEMENT_3D('',#566,#463,#464);
#382=AXIS2_PLACEMENT_3D('',#568,#465,#466);
#383=AXIS2_PLACEMENT_3D('',#570,#467,#468);
#384=AXIS2_PLACEMENT_3D('',#571,#469,#470);
#385=AXIS2_PLACEMENT_3D('',#573,#471,#472);
#386=AXIS2_PLACEMENT_3D('',#575,#473,#474);
#387=AXIS2_PLACEMENT_3D('',#576,#475,#476);
#388=AXIS2_PLACEMENT_3D('',#577,#477,#478);
#389=AXIS2_PLACEMENT_3D('',#578,#479,#480);
#390=AXIS2_PLACEMENT_3D('',#581,#483,#484);
#391=AXIS2_PLACEMENT_3D('',#582,#485,#486);
#392=AXIS2_PLACEMENT_3D('',#584,#487,#488);
#393=AXIS2_PLACEMENT_3D('',#586,#489,#490);
#394=AXIS2_PLACEMENT_3D('',#587,#491,#492);
#395=DIRECTION('',(0.,0.,1.));
#396=DIRECTION('',(1.,0.,0.));
#397=DIRECTION('',(-1.,-9.35581200526817E-16,0.));
#398=DIRECTION('',(9.35581200526817E-16,-1.,0.));
#399=DIRECTION('',(-9.35581200526817E-16,1.,0.));
#400=DIRECTION('',(0.,0.,-1.));
#401=DIRECTION('',(-9.35581200526817E-16,1.,0.));
#402=DIRECTION('',(0.,0.,-1.));
#403=DIRECTION('',(0.,0.,-1.));
#404=DIRECTION('',(-1.,0.,0.));
#405=DIRECTION('',(0.,0.,1.));
#406=DIRECTION('',(1.,9.54097911787243E-15,0.));
#407=DIRECTION('',(0.,0.,-1.));
#408=DIRECTION('',(0.,0.,1.));
#409=DIRECTION('',(1.,9.54097911787243E-15,0.));
#410=DIRECTION('',(3.46944695195361E-16,-1.,0.));
#411=DIRECTION('',(1.,3.46944695195361E-16,0.));
#412=DIRECTION('',(-1.,-3.46944695195361E-16,0.));
#413=DIRECTION('',(0.,0.,-1.));
#414=DIRECTION('',(-1.,-3.46944695195361E-16,0.));
#415=DIRECTION('',(0.,0.,-1.));
#416=DIRECTION('',(-1.,0.,0.));
#417=DIRECTION('',(0.,0.,1.));
#418=DIRECTION('',(-1.21430643318376E-15,1.,0.));
#419=DIRECTION('',(0.,0.,-1.));
#420=DIRECTION('',(0.,0.,1.));
#421=DIRECTION('',(-1.21430643318376E-15,1.,0.));
#422=DIRECTION('',(-1.,-6.62703350373162E-16,0.));
#423=DIRECTION('',(6.62703350373162E-16,-1.,0.));
#424=DIRECTION('',(-6.62703350373162E-16,1.,0.));
#425=DIRECTION('',(0.,0.,-1.));
#426=DIRECTION('',(-6.62703350373162E-16,1.,0.));
#427=DIRECTION('',(0.,0.,-1.));
#428=DIRECTION('',(-1.,0.,0.));
#429=DIRECTION('',(0.,0.,1.));
#430=DIRECTION('',(-1.,0.,0.));
#431=DIRECTION('',(0.,0.,-1.));
#432=DIRECTION('',(0.,0.,1.));
#433=DIRECTION('',(-1.,0.,0.));
#434=DIRECTION('',(5.81573398424417E-16,-1.,0.));
#435=DIRECTION('',(1.,5.81573398424417E-16,0.));
#436=DIRECTION('',(-1.,-5.81573398424417E-16,0.));
#437=DIRECTION('',(0.,0.,-1.));
#438=DIRECTION('',(-1.,-5.81573398424417E-16,0.));
#439=DIRECTION('',(1.,5.37519950302673E-16,0.));
#440=DIRECTION('',(-5.37519950302673E-16,1.,0.));
#441=DIRECTION('',(5.37519950302673E-16,-1.,0.));
#442=DIRECTION('',(0.,0.,-1.));
#443=DIRECTION('',(5.37519950302673E-16,-1.,0.));
#444=DIRECTION('',(0.,0.,-1.));
#445=DIRECTION('',(-4.85154587415069E-16,1.,0.));
#446=DIRECTION('',(-1.,-4.85154587415069E-16,0.));
#447=DIRECTION('',(1.,4.85154587415069E-16,0.));
#448=DIRECTION('',(0.,0.,-1.));
#449=DIRECTION('',(1.,4.85154587415069E-16,0.));
#450=DIRECTION('',(1.,7.8184720044025E-16,0.));
#451=DIRECTION('',(-7.8184720044025E-16,1.,0.));
#452=DIRECTION('',(7.8184720044025E-16,-1.,0.));
#453=DIRECTION('',(0.,0.,-1.));
#454=DIRECTION('',(7.8184720044025E-16,-1.,0.));
#455=DIRECTION('',(0.,0.,-1.));
#456=DIRECTION('',(-1.,0.,0.));
#457=DIRECTION('',(0.,0.,1.));
#458=DIRECTION('',(1.,0.,0.));
#459=DIRECTION('',(0.,0.,1.));
#460=DIRECTION('',(1.,0.,0.));
#461=DIRECTION('',(0.,0.,-1.));
#462=DIRECTION('',(-1.,0.,0.));
#463=DIRECTION('',(0.,0.,1.));
#464=DIRECTION('',(1.,0.,0.));
#465=DIRECTION('',(0.,0.,1.));
#466=DIRECTION('',(1.,0.,0.));
#467=DIRECTION('',(0.,0.,-1.));
#468=DIRECTION('',(-1.,0.,0.));
#469=DIRECTION('',(0.,0.,1.));
#470=DIRECTION('',(1.,0.,0.));
#471=DIRECTION('',(0.,0.,1.));
#472=DIRECTION('',(1.,0.,0.));
#473=DIRECTION('',(0.,0.,-1.));
#474=DIRECTION('',(-1.,0.,0.));
#475=DIRECTION('',(0.,0.,1.));
#476=DIRECTION('',(0.,-1.,0.));
#477=DIRECTION('',(0.,0.,1.));
#478=DIRECTION('',(0.,-1.,0.));
#479=DIRECTION('',(-4.73321548697628E-16,1.,0.));
#480=DIRECTION('',(-1.,-4.73321548697628E-16,0.));
#481=DIRECTION('',(1.,4.73321548697628E-16,0.));
#482=DIRECTION('',(1.,4.73321548697628E-16,0.));
#483=DIRECTION('',(0.,0.,-1.));
#484=DIRECTION('',(-1.,0.,0.));
#485=DIRECTION('',(0.,0.,1.));
#486=DIRECTION('',(1.,0.,0.));
#487=DIRECTION('',(0.,0.,1.));
#488=DIRECTION('',(1.,0.,0.));
#489=DIRECTION('',(0.,0.,1.));
#490=DIRECTION('',(1.,0.,0.));
#491=DIRECTION('',(0.,0.,1.));
#492=DIRECTION('',(1.,0.,0.));
#493=CARTESIAN_POINT('',(0.,0.,0.));
#494=CARTESIAN_POINT('',(0.096208140335083,-0.0194863412761688,0.003));
#495=CARTESIAN_POINT('',(0.096208140335083,-0.0194863412761688,0.));
#496=CARTESIAN_POINT('',(0.096208140335083,-0.0417363412761688,0.));
#497=CARTESIAN_POINT('',(0.096208140335083,0.00276365872383121,0.));
#498=CARTESIAN_POINT('',(0.096208140335083,0.00276365872383121,0.003));
#499=CARTESIAN_POINT('',(0.096208140335083,0.00276365872383121,0.003));
#500=CARTESIAN_POINT('',(0.096208140335083,-0.0194863412761688,0.003));
#501=CARTESIAN_POINT('',(0.096208140335083,-0.0417363412761688,0.003));
#502=CARTESIAN_POINT('',(0.096208140335083,-0.0417363412761688,0.003));
#503=CARTESIAN_POINT('',(0.093708140335083,0.00276365872383119,0.003));
#504=CARTESIAN_POINT('',(0.093708140335083,0.00276365872383119,0.));
#505=CARTESIAN_POINT('',(0.093708140335083,0.00526365872383122,0.));
#506=CARTESIAN_POINT('',(0.093708140335083,0.00526365872383122,0.003));
#507=CARTESIAN_POINT('',(0.093708140335083,0.00526365872383122,0.003));
#508=CARTESIAN_POINT('',(0.093708140335083,0.00276365872383119,0.003));
#509=CARTESIAN_POINT('',(0.092458140335083,0.00526365872383121,0.003));
#510=CARTESIAN_POINT('',(0.092458140335083,0.00526365872383121,0.));
#511=CARTESIAN_POINT('',(-0.00174180868536239,0.00526365872383116,0.));
#512=CARTESIAN_POINT('',(-0.00174180868536239,0.00526365872383116,0.003));
#513=CARTESIAN_POINT('',(-0.00174180868536239,0.00526365872383116,0.003));
#514=CARTESIAN_POINT('',(0.092458140335083,0.00526365872383121,0.003));
#515=CARTESIAN_POINT('',(-0.00174180868536239,0.00276365872383117,0.003));
#516=CARTESIAN_POINT('',(-0.00174180868536239,0.00276365872383117,0.));
#517=CARTESIAN_POINT('',(-0.00424180868536239,0.00276365872383117,0.));
#518=CARTESIAN_POINT('',(-0.00424180868536239,0.00276365872383117,0.003));
#519=CARTESIAN_POINT('',(-0.00424180868536239,0.00276365872383117,0.003));
#520=CARTESIAN_POINT('',(-0.00174180868536239,0.00276365872383117,0.003));
#521=CARTESIAN_POINT('',(-0.00424180868536238,-0.0194863412761688,0.003));
#522=CARTESIAN_POINT('',(-0.00424180868536238,-0.0194863412761688,0.));
#523=CARTESIAN_POINT('',(-0.00424180868536236,-0.0417363412761688,0.));
#524=CARTESIAN_POINT('',(-0.00424180868536236,-0.0417363412761688,0.003));
#525=CARTESIAN_POINT('',(-0.00424180868536236,-0.0417363412761688,0.003));
#526=CARTESIAN_POINT('',(-0.00424180868536238,-0.0194863412761688,0.003));
#527=CARTESIAN_POINT('',(-0.00174180868536236,-0.0417363412761688,0.003));
#528=CARTESIAN_POINT('',(-0.00174180868536236,-0.0417363412761688,0.));
#529=CARTESIAN_POINT('',(-0.00174180868536236,-0.0442363412761689,0.));
#530=CARTESIAN_POINT('',(-0.00174180868536236,-0.0442363412761689,0.003));
#531=CARTESIAN_POINT('',(-0.00174180868536236,-0.0442363412761689,0.003));
#532=CARTESIAN_POINT('',(-0.00174180868536236,-0.0417363412761688,0.003));
#533=CARTESIAN_POINT('',(0.0459831658248603,-0.0442363412761688,0.003));
#534=CARTESIAN_POINT('',(0.0459831658248603,-0.0442363412761688,0.));
#535=CARTESIAN_POINT('',(0.093708140335083,-0.0442363412761688,0.));
#536=CARTESIAN_POINT('',(0.093708140335083,-0.0442363412761688,0.003));
#537=CARTESIAN_POINT('',(0.093708140335083,-0.0442363412761688,0.003));
#538=CARTESIAN_POINT('',(0.0459831658248603,-0.0442363412761688,0.003));
#539=CARTESIAN_POINT('',(0.0119081913146376,-0.0194863412761688,0.003));
#540=CARTESIAN_POINT('',(0.0119081913146376,-0.0194863412761688,0.));
#541=CARTESIAN_POINT('',(0.0119081913146376,-0.00173634127616883,0.));
#542=CARTESIAN_POINT('',(0.0119081913146376,-0.0372363412761689,0.));
#543=CARTESIAN_POINT('',(0.0119081913146376,-0.00173634127616883,0.003));
#544=CARTESIAN_POINT('',(0.0119081913146376,-0.00173634127616883,0.003));
#545=CARTESIAN_POINT('',(0.0119081913146376,-0.0194863412761688,0.003));
#546=CARTESIAN_POINT('',(0.0119081913146376,-0.0372363412761689,0.003));
#547=CARTESIAN_POINT('',(0.0119081913146376,-0.0372363412761689,0.003));
#548=CARTESIAN_POINT('',(0.0485581913146376,-0.00173634127616881,0.003));
#549=CARTESIAN_POINT('',(0.0485581913146376,-0.00173634127616881,0.));
#550=CARTESIAN_POINT('',(0.0852081913146376,-0.00173634127616877,0.));
#551=CARTESIAN_POINT('',(0.0852081913146376,-0.00173634127616877,0.003));
#552=CARTESIAN_POINT('',(0.0852081913146376,-0.00173634127616877,0.003));
#553=CARTESIAN_POINT('',(0.0485581913146376,-0.00173634127616881,0.003));
#554=CARTESIAN_POINT('',(0.0852081913146376,-0.0194863412761688,0.003));
#555=CARTESIAN_POINT('',(0.0852081913146376,-0.0194863412761688,0.));
#556=CARTESIAN_POINT('',(0.0852081913146376,-0.0372363412761688,0.));
#557=CARTESIAN_POINT('',(0.0852081913146376,-0.0372363412761688,0.003));
#558=CARTESIAN_POINT('',(0.0852081913146376,-0.0372363412761688,0.003));
#559=CARTESIAN_POINT('',(0.0852081913146376,-0.0194863412761688,0.003));
#560=CARTESIAN_POINT('',(0.093708140335083,-0.0417363412761688,0.003));
#561=CARTESIAN_POINT('',(0.093708140335083,-0.0417363412761688,0.003));
#562=CARTESIAN_POINT('',(0.095308140335083,-0.0417363412761688,0.003));
#563=CARTESIAN_POINT('',(0.093708140335083,-0.0417363412761688,0.));
#564=CARTESIAN_POINT('',(0.095308140335083,-0.0417363412761688,0.));
#565=CARTESIAN_POINT('',(0.093708140335083,0.00276365872383121,0.003));
#566=CARTESIAN_POINT('',(0.093708140335083,0.00276365872383121,0.003));
#567=CARTESIAN_POINT('',(0.095308140335083,0.00276365872383121,0.003));
#568=CARTESIAN_POINT('',(0.093708140335083,0.00276365872383121,0.));
#569=CARTESIAN_POINT('',(0.095308140335083,0.00276365872383121,0.));
#570=CARTESIAN_POINT('',(-0.00174180868536239,0.00276365872383117,0.003));
#571=CARTESIAN_POINT('',(-0.00174180868536239,0.00276365872383117,0.003));
#572=CARTESIAN_POINT('',(-0.000141808685362395,0.00276365872383117,0.003));
#573=CARTESIAN_POINT('',(-0.00174180868536239,0.00276365872383117,0.));
#574=CARTESIAN_POINT('',(-0.000141808685362395,0.00276365872383117,0.));
#575=CARTESIAN_POINT('',(0.093708140335083,-0.0417363412761688,0.003));
#576=CARTESIAN_POINT('',(0.093708140335083,-0.0417363412761688,0.));
#577=CARTESIAN_POINT('',(0.093708140335083,-0.0417363412761688,0.003));
#578=CARTESIAN_POINT('',(0.0485581913146376,-0.0372363412761688,0.003));
#579=CARTESIAN_POINT('',(0.0485581913146376,-0.0372363412761688,0.));
#580=CARTESIAN_POINT('',(0.0485581913146376,-0.0372363412761688,0.003));
#581=CARTESIAN_POINT('',(-0.00174180868536236,-0.0417363412761688,0.003));
#582=CARTESIAN_POINT('',(-0.00174180868536236,-0.0417363412761688,0.003));
#583=CARTESIAN_POINT('',(-0.00014180868536236,-0.0417363412761688,0.003));
#584=CARTESIAN_POINT('',(-0.00174180868536236,-0.0417363412761688,0.));
#585=CARTESIAN_POINT('',(-0.00014180868536236,-0.0417363412761688,0.));
#586=CARTESIAN_POINT('',(0.0459831658248603,-0.0194863412761688,0.003));
#587=CARTESIAN_POINT('',(0.0459831658248603,-0.0194863412761688,0.));
#588=MECHANICAL_DESIGN_GEOMETRIC_PRESENTATION_REPRESENTATION('',(#349),
#589);
#589=(
GEOMETRIC_REPRESENTATION_CONTEXT(3)
GLOBAL_UNCERTAINTY_ASSIGNED_CONTEXT((#590))
GLOBAL_UNIT_ASSIGNED_CONTEXT((#593,#592,#591))
REPRESENTATION_CONTEXT('Part 2','TOP_LEVEL_ASSEMBLY_PART')
);
#590=UNCERTAINTY_MEASURE_WITH_UNIT(LENGTH_MEASURE(1.E-8),#593,
'DISTANCE_ACCURACY_VALUE','Maximum Tolerance applied to model');
#591=(
NAMED_UNIT(*)
SI_UNIT($,.STERADIAN.)
SOLID_ANGLE_UNIT()
);
#592=(
NAMED_UNIT(*)
PLANE_ANGLE_UNIT()
SI_UNIT($,.RADIAN.)
);
#593=(
LENGTH_UNIT()
NAMED_UNIT(*)
SI_UNIT($,.METRE.)
);
#594=PRODUCT_DEFINITION_SHAPE('','',#595);
#595=PRODUCT_DEFINITION('','',#597,#596);
#596=PRODUCT_DEFINITION_CONTEXT('',#603,'design');
#597=PRODUCT_DEFINITION_FORMATION_WITH_SPECIFIED_SOURCE('','',#599,
 .NOT_KNOWN.);
#598=PRODUCT_RELATED_PRODUCT_CATEGORY('','',(#599));
#599=PRODUCT('Part 2','Part 2','Part 2',(#601));
#600=PRODUCT_CATEGORY('','');
#601=PRODUCT_CONTEXT('',#603,'mechanical');
#602=APPLICATION_PROTOCOL_DEFINITION('international standard',
'ap242_managed_model_based_3d_engineering',2020,#603);
#603=APPLICATION_CONTEXT('managed model based 3d engineering');
ENDSEC;
END-ISO-10303-21;
