ISO-10303-21;
HEADER;
/* Generated by software containing ST-Developer
 * from STEP Tools, Inc. (www.steptools.com) 
 */
/* OPTION: using custom renumber hook */

FILE_DESCRIPTION(
/* description */ ('STEP AP242 Edition 2',
'CAx-IF Rec.Pracs.---Representation and Presentation of Product Manufa
cturing Information (PMI)---4.0---2014-10-13',
'CAx-IF Rec.Pracs.---3D Tessellated Geometry---0.4---2014-09-14','2;1',
'CAx-IF Rec.Pracs.---User Defined Attributes---1.5---2016-08-15'),
/* implementation_level */ '2;1');

FILE_NAME(
/* name */ 'Part Studio 1 - Part 1',
/* time_stamp */ '2026-10-03T06:33:30Z',
/* author */ (''),
/* organization */ (''),
/* preprocessor_version */ 'ST-DEVELOPER v20',
/* originating_system */ 'ONSHAPE BY PTC INC, 1.221',
/* authorisation */ '  ');

FILE_SCHEMA (('AP242_MANAGED_MODEL_BASED_3D_ENGINEERING_MIM_LF { 1 0 10303 442 3 1 4 }'));
ENDSEC;

DATA;
#10=SHAPE_REPRESENTATION_RELATIONSHIP('','',#730,#11);
#11=ADVANCED_BREP_SHAPE_REPRESENTATION('',(#728),#1222);
#12=CIRCLE('',#735,0.0025);
#13=CIRCLE('',#736,0.0025);
#14=CIRCLE('',#739,0.0025);
#15=CIRCLE('',#740,0.0025);
#16=CIRCLE('',#743,0.0025);
#17=CIRCLE('',#744,0.0025);
#18=CIRCLE('',#749,0.0016);
#19=CIRCLE('',#750,0.0016);
#20=CIRCLE('',#752,0.0016);
#21=CIRCLE('',#753,0.0016);
#22=CIRCLE('',#755,0.0016);
#23=CIRCLE('',#756,0.0016);
#24=CIRCLE('',#758,0.0025);
#25=CIRCLE('',#759,0.0025);
#26=CIRCLE('',#761,0.0016);
#27=CIRCLE('',#762,0.0016);
#28=CIRCLE('',#766,0.002);
#29=CIRCLE('',#767,0.002);
#30=CIRCLE('',#770,0.002);
#31=CIRCLE('',#771,0.002);
#32=CIRCLE('',#774,0.002);
#33=CIRCLE('',#775,0.002);
#34=CIRCLE('',#778,0.002);
#35=CIRCLE('',#779,0.002);
#36=CIRCLE('',#787,0.0015);
#37=CIRCLE('',#788,0.0015);
#38=CIRCLE('',#789,0.0015);
#39=CIRCLE('',#790,0.00140356688476125);
#40=CIRCLE('',#793,0.0015);
#41=CIRCLE('',#796,0.0015);
#42=CIRCLE('',#799,0.0015);
#43=CIRCLE('',#802,0.00140356688476125);
#44=CYLINDRICAL_SURFACE('',#734,0.0025);
#45=CYLINDRICAL_SURFACE('',#738,0.0025);
#46=CYLINDRICAL_SURFACE('',#742,0.0025);
#47=CYLINDRICAL_SURFACE('',#748,0.0016);
#48=CYLINDRICAL_SURFACE('',#751,0.0016);
#49=CYLINDRICAL_SURFACE('',#754,0.0016);
#50=CYLINDRICAL_SURFACE('',#757,0.0025);
#51=CYLINDRICAL_SURFACE('',#760,0.0016);
#52=CYLINDRICAL_SURFACE('',#765,0.002);
#53=CYLINDRICAL_SURFACE('',#769,0.002);
#54=CYLINDRICAL_SURFACE('',#773,0.002);
#55=CYLINDRICAL_SURFACE('',#777,0.002);
#56=CYLINDRICAL_SURFACE('',#792,0.0015);
#57=CYLINDRICAL_SURFACE('',#795,0.0015);
#58=CYLINDRICAL_SURFACE('',#798,0.0015);
#59=CYLINDRICAL_SURFACE('',#801,0.00140356688476125);
#60=ORIENTED_EDGE('',*,*,#254,.F.);
#61=ORIENTED_EDGE('',*,*,#255,.T.);
#62=ORIENTED_EDGE('',*,*,#256,.F.);
#63=ORIENTED_EDGE('',*,*,#257,.F.);
#64=ORIENTED_EDGE('',*,*,#258,.T.);
#65=ORIENTED_EDGE('',*,*,#259,.F.);
#66=ORIENTED_EDGE('',*,*,#260,.F.);
#67=ORIENTED_EDGE('',*,*,#261,.T.);
#68=ORIENTED_EDGE('',*,*,#262,.F.);
#69=ORIENTED_EDGE('',*,*,#261,.F.);
#70=ORIENTED_EDGE('',*,*,#263,.T.);
#71=ORIENTED_EDGE('',*,*,#264,.T.);
#72=ORIENTED_EDGE('',*,*,#265,.T.);
#73=ORIENTED_EDGE('',*,*,#264,.F.);
#74=ORIENTED_EDGE('',*,*,#266,.F.);
#75=ORIENTED_EDGE('',*,*,#267,.T.);
#76=ORIENTED_EDGE('',*,*,#268,.F.);
#77=ORIENTED_EDGE('',*,*,#267,.F.);
#78=ORIENTED_EDGE('',*,*,#269,.T.);
#79=ORIENTED_EDGE('',*,*,#270,.T.);
#80=ORIENTED_EDGE('',*,*,#271,.F.);
#81=ORIENTED_EDGE('',*,*,#270,.F.);
#82=ORIENTED_EDGE('',*,*,#272,.T.);
#83=ORIENTED_EDGE('',*,*,#273,.T.);
#84=ORIENTED_EDGE('',*,*,#274,.F.);
#85=ORIENTED_EDGE('',*,*,#273,.F.);
#86=ORIENTED_EDGE('',*,*,#275,.T.);
#87=ORIENTED_EDGE('',*,*,#276,.T.);
#88=ORIENTED_EDGE('',*,*,#277,.T.);
#89=ORIENTED_EDGE('',*,*,#278,.T.);
#90=ORIENTED_EDGE('',*,*,#279,.F.);
#91=ORIENTED_EDGE('',*,*,#280,.T.);
#92=ORIENTED_EDGE('',*,*,#281,.T.);
#93=ORIENTED_EDGE('',*,*,#280,.F.);
#94=ORIENTED_EDGE('',*,*,#282,.F.);
#95=ORIENTED_EDGE('',*,*,#256,.T.);
#96=ORIENTED_EDGE('',*,*,#283,.F.);
#97=ORIENTED_EDGE('',*,*,#284,.T.);
#98=ORIENTED_EDGE('',*,*,#285,.T.);
#99=ORIENTED_EDGE('',*,*,#286,.F.);
#100=ORIENTED_EDGE('',*,*,#287,.F.);
#101=ORIENTED_EDGE('',*,*,#276,.F.);
#102=ORIENTED_EDGE('',*,*,#288,.T.);
#103=ORIENTED_EDGE('',*,*,#289,.T.);
#104=ORIENTED_EDGE('',*,*,#290,.F.);
#105=ORIENTED_EDGE('',*,*,#291,.T.);
#106=ORIENTED_EDGE('',*,*,#292,.F.);
#107=ORIENTED_EDGE('',*,*,#293,.T.);
#108=ORIENTED_EDGE('',*,*,#294,.F.);
#109=ORIENTED_EDGE('',*,*,#295,.T.);
#110=ORIENTED_EDGE('',*,*,#296,.F.);
#111=ORIENTED_EDGE('',*,*,#289,.F.);
#112=ORIENTED_EDGE('',*,*,#297,.T.);
#113=ORIENTED_EDGE('',*,*,#259,.T.);
#114=ORIENTED_EDGE('',*,*,#298,.F.);
#115=ORIENTED_EDGE('',*,*,#299,.T.);
#116=ORIENTED_EDGE('',*,*,#300,.T.);
#117=ORIENTED_EDGE('',*,*,#277,.F.);
#118=ORIENTED_EDGE('',*,*,#281,.F.);
#119=ORIENTED_EDGE('',*,*,#255,.F.);
#120=ORIENTED_EDGE('',*,*,#258,.F.);
#121=ORIENTED_EDGE('',*,*,#262,.T.);
#122=ORIENTED_EDGE('',*,*,#265,.F.);
#123=ORIENTED_EDGE('',*,*,#268,.T.);
#124=ORIENTED_EDGE('',*,*,#271,.T.);
#125=ORIENTED_EDGE('',*,*,#274,.T.);
#126=ORIENTED_EDGE('',*,*,#287,.T.);
#127=ORIENTED_EDGE('',*,*,#301,.F.);
#128=ORIENTED_EDGE('',*,*,#283,.T.);
#129=ORIENTED_EDGE('',*,*,#296,.T.);
#130=ORIENTED_EDGE('',*,*,#295,.F.);
#131=ORIENTED_EDGE('',*,*,#293,.F.);
#132=ORIENTED_EDGE('',*,*,#291,.F.);
#133=ORIENTED_EDGE('',*,*,#299,.F.);
#134=ORIENTED_EDGE('',*,*,#302,.T.);
#135=ORIENTED_EDGE('',*,*,#303,.F.);
#136=ORIENTED_EDGE('',*,*,#304,.F.);
#137=ORIENTED_EDGE('',*,*,#305,.T.);
#138=ORIENTED_EDGE('',*,*,#306,.T.);
#139=ORIENTED_EDGE('',*,*,#305,.F.);
#140=ORIENTED_EDGE('',*,*,#307,.F.);
#141=ORIENTED_EDGE('',*,*,#308,.T.);
#142=ORIENTED_EDGE('',*,*,#309,.T.);
#143=ORIENTED_EDGE('',*,*,#308,.F.);
#144=ORIENTED_EDGE('',*,*,#310,.F.);
#145=ORIENTED_EDGE('',*,*,#311,.T.);
#146=ORIENTED_EDGE('',*,*,#312,.T.);
#147=ORIENTED_EDGE('',*,*,#311,.F.);
#148=ORIENTED_EDGE('',*,*,#313,.F.);
#149=ORIENTED_EDGE('',*,*,#314,.T.);
#150=ORIENTED_EDGE('',*,*,#315,.F.);
#151=ORIENTED_EDGE('',*,*,#314,.F.);
#152=ORIENTED_EDGE('',*,*,#316,.T.);
#153=ORIENTED_EDGE('',*,*,#317,.T.);
#154=ORIENTED_EDGE('',*,*,#318,.T.);
#155=ORIENTED_EDGE('',*,*,#317,.F.);
#156=ORIENTED_EDGE('',*,*,#319,.F.);
#157=ORIENTED_EDGE('',*,*,#320,.T.);
#158=ORIENTED_EDGE('',*,*,#321,.F.);
#159=ORIENTED_EDGE('',*,*,#320,.F.);
#160=ORIENTED_EDGE('',*,*,#322,.T.);
#161=ORIENTED_EDGE('',*,*,#323,.T.);
#162=ORIENTED_EDGE('',*,*,#324,.T.);
#163=ORIENTED_EDGE('',*,*,#323,.F.);
#164=ORIENTED_EDGE('',*,*,#325,.F.);
#165=ORIENTED_EDGE('',*,*,#303,.T.);
#166=ORIENTED_EDGE('',*,*,#304,.T.);
#167=ORIENTED_EDGE('',*,*,#325,.T.);
#168=ORIENTED_EDGE('',*,*,#322,.F.);
#169=ORIENTED_EDGE('',*,*,#319,.T.);
#170=ORIENTED_EDGE('',*,*,#316,.F.);
#171=ORIENTED_EDGE('',*,*,#313,.T.);
#172=ORIENTED_EDGE('',*,*,#310,.T.);
#173=ORIENTED_EDGE('',*,*,#307,.T.);
#174=ORIENTED_EDGE('',*,*,#301,.T.);
#175=ORIENTED_EDGE('',*,*,#286,.T.);
#176=ORIENTED_EDGE('',*,*,#285,.F.);
#177=ORIENTED_EDGE('',*,*,#284,.F.);
#178=ORIENTED_EDGE('',*,*,#302,.F.);
#179=ORIENTED_EDGE('',*,*,#306,.F.);
#180=ORIENTED_EDGE('',*,*,#309,.F.);
#181=ORIENTED_EDGE('',*,*,#312,.F.);
#182=ORIENTED_EDGE('',*,*,#315,.T.);
#183=ORIENTED_EDGE('',*,*,#318,.F.);
#184=ORIENTED_EDGE('',*,*,#321,.T.);
#185=ORIENTED_EDGE('',*,*,#324,.F.);
#186=ORIENTED_EDGE('',*,*,#300,.F.);
#187=ORIENTED_EDGE('',*,*,#254,.T.);
#188=ORIENTED_EDGE('',*,*,#326,.T.);
#189=ORIENTED_EDGE('',*,*,#278,.F.);
#190=ORIENTED_EDGE('',*,*,#298,.T.);
#191=ORIENTED_EDGE('',*,*,#294,.T.);
#192=ORIENTED_EDGE('',*,*,#292,.T.);
#193=ORIENTED_EDGE('',*,*,#290,.T.);
#194=ORIENTED_EDGE('',*,*,#327,.F.);
#195=ORIENTED_EDGE('',*,*,#328,.F.);
#196=ORIENTED_EDGE('',*,*,#329,.F.);
#197=ORIENTED_EDGE('',*,*,#330,.F.);
#198=ORIENTED_EDGE('',*,*,#331,.T.);
#199=ORIENTED_EDGE('',*,*,#332,.F.);
#200=ORIENTED_EDGE('',*,*,#333,.T.);
#201=ORIENTED_EDGE('',*,*,#334,.F.);
#202=ORIENTED_EDGE('',*,*,#326,.F.);
#203=ORIENTED_EDGE('',*,*,#257,.T.);
#204=ORIENTED_EDGE('',*,*,#282,.T.);
#205=ORIENTED_EDGE('',*,*,#279,.T.);
#206=ORIENTED_EDGE('',*,*,#327,.T.);
#207=ORIENTED_EDGE('',*,*,#335,.F.);
#208=ORIENTED_EDGE('',*,*,#336,.F.);
#209=ORIENTED_EDGE('',*,*,#337,.T.);
#210=ORIENTED_EDGE('',*,*,#328,.T.);
#211=ORIENTED_EDGE('',*,*,#337,.F.);
#212=ORIENTED_EDGE('',*,*,#338,.F.);
#213=ORIENTED_EDGE('',*,*,#339,.T.);
#214=ORIENTED_EDGE('',*,*,#329,.T.);
#215=ORIENTED_EDGE('',*,*,#339,.F.);
#216=ORIENTED_EDGE('',*,*,#340,.F.);
#217=ORIENTED_EDGE('',*,*,#341,.T.);
#218=ORIENTED_EDGE('',*,*,#330,.T.);
#219=ORIENTED_EDGE('',*,*,#341,.F.);
#220=ORIENTED_EDGE('',*,*,#342,.F.);
#221=ORIENTED_EDGE('',*,*,#343,.T.);
#222=ORIENTED_EDGE('',*,*,#331,.F.);
#223=ORIENTED_EDGE('',*,*,#343,.F.);
#224=ORIENTED_EDGE('',*,*,#344,.T.);
#225=ORIENTED_EDGE('',*,*,#345,.T.);
#226=ORIENTED_EDGE('',*,*,#332,.T.);
#227=ORIENTED_EDGE('',*,*,#345,.F.);
#228=ORIENTED_EDGE('',*,*,#346,.F.);
#229=ORIENTED_EDGE('',*,*,#347,.T.);
#230=ORIENTED_EDGE('',*,*,#333,.F.);
#231=ORIENTED_EDGE('',*,*,#347,.F.);
#232=ORIENTED_EDGE('',*,*,#348,.T.);
#233=ORIENTED_EDGE('',*,*,#349,.T.);
#234=ORIENTED_EDGE('',*,*,#334,.T.);
#235=ORIENTED_EDGE('',*,*,#349,.F.);
#236=ORIENTED_EDGE('',*,*,#350,.F.);
#237=ORIENTED_EDGE('',*,*,#335,.T.);
#238=ORIENTED_EDGE('',*,*,#272,.F.);
#239=ORIENTED_EDGE('',*,*,#269,.F.);
#240=ORIENTED_EDGE('',*,*,#266,.T.);
#241=ORIENTED_EDGE('',*,*,#263,.F.);
#242=ORIENTED_EDGE('',*,*,#260,.T.);
#243=ORIENTED_EDGE('',*,*,#297,.F.);
#244=ORIENTED_EDGE('',*,*,#288,.F.);
#245=ORIENTED_EDGE('',*,*,#275,.F.);
#246=ORIENTED_EDGE('',*,*,#336,.T.);
#247=ORIENTED_EDGE('',*,*,#350,.T.);
#248=ORIENTED_EDGE('',*,*,#348,.F.);
#249=ORIENTED_EDGE('',*,*,#346,.T.);
#250=ORIENTED_EDGE('',*,*,#344,.F.);
#251=ORIENTED_EDGE('',*,*,#342,.T.);
#252=ORIENTED_EDGE('',*,*,#340,.T.);
#253=ORIENTED_EDGE('',*,*,#338,.T.);
#254=EDGE_CURVE('',#351,#352,#419,.T.);
#255=EDGE_CURVE('',#351,#353,#420,.T.);
#256=EDGE_CURVE('',#354,#353,#421,.T.);
#257=EDGE_CURVE('',#352,#354,#422,.T.);
#258=EDGE_CURVE('',#355,#356,#423,.T.);
#259=EDGE_CURVE('',#357,#356,#424,.T.);
#260=EDGE_CURVE('',#358,#357,#425,.T.);
#261=EDGE_CURVE('',#358,#355,#426,.T.);
#262=EDGE_CURVE('',#355,#359,#12,.T.);
#263=EDGE_CURVE('',#358,#360,#13,.T.);
#264=EDGE_CURVE('',#360,#359,#427,.T.);
#265=EDGE_CURVE('',#361,#359,#428,.T.);
#266=EDGE_CURVE('',#362,#360,#429,.T.);
#267=EDGE_CURVE('',#362,#361,#430,.T.);
#268=EDGE_CURVE('',#361,#363,#14,.T.);
#269=EDGE_CURVE('',#362,#364,#15,.T.);
#270=EDGE_CURVE('',#364,#363,#431,.T.);
#271=EDGE_CURVE('',#363,#365,#432,.T.);
#272=EDGE_CURVE('',#364,#366,#433,.T.);
#273=EDGE_CURVE('',#366,#365,#434,.T.);
#274=EDGE_CURVE('',#365,#367,#16,.T.);
#275=EDGE_CURVE('',#366,#368,#17,.T.);
#276=EDGE_CURVE('',#368,#367,#435,.T.);
#277=EDGE_CURVE('',#369,#370,#436,.T.);
#278=EDGE_CURVE('',#370,#371,#437,.T.);
#279=EDGE_CURVE('',#372,#371,#438,.T.);
#280=EDGE_CURVE('',#372,#369,#439,.T.);
#281=EDGE_CURVE('',#353,#369,#440,.T.);
#282=EDGE_CURVE('',#354,#372,#441,.T.);
#283=EDGE_CURVE('',#373,#374,#442,.T.);
#284=EDGE_CURVE('',#373,#375,#443,.T.);
#285=EDGE_CURVE('',#375,#376,#444,.T.);
#286=EDGE_CURVE('',#377,#376,#445,.T.);
#287=EDGE_CURVE('',#367,#377,#446,.T.);
#288=EDGE_CURVE('',#368,#378,#447,.T.);
#289=EDGE_CURVE('',#378,#374,#448,.T.);
#290=EDGE_CURVE('',#379,#379,#18,.T.);
#291=EDGE_CURVE('',#380,#380,#19,.T.);
#292=EDGE_CURVE('',#381,#381,#20,.T.);
#293=EDGE_CURVE('',#382,#382,#21,.T.);
#294=EDGE_CURVE('',#383,#383,#22,.T.);
#295=EDGE_CURVE('',#384,#384,#23,.T.);
#296=EDGE_CURVE('',#374,#356,#24,.T.);
#297=EDGE_CURVE('',#378,#357,#25,.T.);
#298=EDGE_CURVE('',#385,#385,#26,.T.);
#299=EDGE_CURVE('',#386,#386,#27,.T.);
#300=EDGE_CURVE('',#351,#370,#449,.T.);
#301=EDGE_CURVE('',#373,#377,#450,.T.);
#302=EDGE_CURVE('',#387,#388,#451,.T.);
#303=EDGE_CURVE('',#389,#388,#452,.T.);
#304=EDGE_CURVE('',#390,#389,#453,.T.);
#305=EDGE_CURVE('',#390,#387,#454,.T.);
#306=EDGE_CURVE('',#391,#387,#28,.T.);
#307=EDGE_CURVE('',#392,#390,#29,.T.);
#308=EDGE_CURVE('',#392,#391,#455,.T.);
#309=EDGE_CURVE('',#393,#391,#456,.T.);
#310=EDGE_CURVE('',#394,#392,#457,.T.);
#311=EDGE_CURVE('',#394,#393,#458,.T.);
#312=EDGE_CURVE('',#395,#393,#30,.T.);
#313=EDGE_CURVE('',#396,#394,#31,.T.);
#314=EDGE_CURVE('',#396,#395,#459,.T.);
#315=EDGE_CURVE('',#395,#397,#460,.T.);
#316=EDGE_CURVE('',#396,#398,#461,.T.);
#317=EDGE_CURVE('',#398,#397,#462,.T.);
#318=EDGE_CURVE('',#399,#397,#32,.T.);
#319=EDGE_CURVE('',#400,#398,#33,.T.);
#320=EDGE_CURVE('',#400,#399,#463,.T.);
#321=EDGE_CURVE('',#399,#401,#464,.T.);
#322=EDGE_CURVE('',#400,#402,#465,.T.);
#323=EDGE_CURVE('',#402,#401,#466,.T.);
#324=EDGE_CURVE('',#388,#401,#34,.T.);
#325=EDGE_CURVE('',#389,#402,#35,.T.);
#326=EDGE_CURVE('',#352,#371,#467,.T.);
#327=EDGE_CURVE('',#403,#404,#468,.T.);
#328=EDGE_CURVE('',#405,#403,#36,.T.);
#329=EDGE_CURVE('',#406,#405,#469,.T.);
#330=EDGE_CURVE('',#407,#406,#37,.T.);
#331=EDGE_CURVE('',#407,#408,#470,.T.);
#332=EDGE_CURVE('',#409,#408,#38,.T.);
#333=EDGE_CURVE('',#409,#410,#471,.T.);
#334=EDGE_CURVE('',#404,#410,#39,.T.);
#335=EDGE_CURVE('',#411,#404,#472,.T.);
#336=EDGE_CURVE('',#412,#411,#473,.T.);
#337=EDGE_CURVE('',#412,#403,#474,.T.);
#338=EDGE_CURVE('',#413,#412,#40,.T.);
#339=EDGE_CURVE('',#413,#405,#475,.T.);
#340=EDGE_CURVE('',#414,#413,#476,.T.);
#341=EDGE_CURVE('',#414,#406,#477,.T.);
#342=EDGE_CURVE('',#415,#414,#41,.T.);
#343=EDGE_CURVE('',#415,#407,#478,.T.);
#344=EDGE_CURVE('',#415,#416,#479,.T.);
#345=EDGE_CURVE('',#416,#408,#480,.T.);
#346=EDGE_CURVE('',#417,#416,#42,.T.);
#347=EDGE_CURVE('',#417,#409,#481,.T.);
#348=EDGE_CURVE('',#417,#418,#482,.T.);
#349=EDGE_CURVE('',#418,#410,#483,.T.);
#350=EDGE_CURVE('',#411,#418,#43,.T.);
#351=VERTEX_POINT('',#1018);
#352=VERTEX_POINT('',#1019);
#353=VERTEX_POINT('',#1021);
#354=VERTEX_POINT('',#1023);
#355=VERTEX_POINT('',#1027);
#356=VERTEX_POINT('',#1028);
#357=VERTEX_POINT('',#1030);
#358=VERTEX_POINT('',#1032);
#359=VERTEX_POINT('',#1036);
#360=VERTEX_POINT('',#1038);
#361=VERTEX_POINT('',#1042);
#362=VERTEX_POINT('',#1044);
#363=VERTEX_POINT('',#1048);
#364=VERTEX_POINT('',#1050);
#365=VERTEX_POINT('',#1054);
#366=VERTEX_POINT('',#1056);
#367=VERTEX_POINT('',#1060);
#368=VERTEX_POINT('',#1062);
#369=VERTEX_POINT('',#1066);
#370=VERTEX_POINT('',#1067);
#371=VERTEX_POINT('',#1069);
#372=VERTEX_POINT('',#1071);
#373=VERTEX_POINT('',#1078);
#374=VERTEX_POINT('',#1079);
#375=VERTEX_POINT('',#1081);
#376=VERTEX_POINT('',#1083);
#377=VERTEX_POINT('',#1085);
#378=VERTEX_POINT('',#1088);
#379=VERTEX_POINT('',#1092);
#380=VERTEX_POINT('',#1094);
#381=VERTEX_POINT('',#1097);
#382=VERTEX_POINT('',#1099);
#383=VERTEX_POINT('',#1102);
#384=VERTEX_POINT('',#1104);
#385=VERTEX_POINT('',#1110);
#386=VERTEX_POINT('',#1112);
#387=VERTEX_POINT('',#1118);
#388=VERTEX_POINT('',#1119);
#389=VERTEX_POINT('',#1121);
#390=VERTEX_POINT('',#1123);
#391=VERTEX_POINT('',#1127);
#392=VERTEX_POINT('',#1129);
#393=VERTEX_POINT('',#1133);
#394=VERTEX_POINT('',#1135);
#395=VERTEX_POINT('',#1139);
#396=VERTEX_POINT('',#1141);
#397=VERTEX_POINT('',#1145);
#398=VERTEX_POINT('',#1147);
#399=VERTEX_POINT('',#1151);
#400=VERTEX_POINT('',#1153);
#401=VERTEX_POINT('',#1157);
#402=VERTEX_POINT('',#1159);
#403=VERTEX_POINT('',#1173);
#404=VERTEX_POINT('',#1174);
#405=VERTEX_POINT('',#1176);
#406=VERTEX_POINT('',#1178);
#407=VERTEX_POINT('',#1180);
#408=VERTEX_POINT('',#1182);
#409=VERTEX_POINT('',#1184);
#410=VERTEX_POINT('',#1186);
#411=VERTEX_POINT('',#1190);
#412=VERTEX_POINT('',#1192);
#413=VERTEX_POINT('',#1196);
#414=VERTEX_POINT('',#1200);
#415=VERTEX_POINT('',#1204);
#416=VERTEX_POINT('',#1208);
#417=VERTEX_POINT('',#1212);
#418=VERTEX_POINT('',#1216);
#419=LINE('',#1017,#484);
#420=LINE('',#1020,#485);
#421=LINE('',#1022,#486);
#422=LINE('',#1024,#487);
#423=LINE('',#1026,#488);
#424=LINE('',#1029,#489);
#425=LINE('',#1031,#490);
#426=LINE('',#1033,#491);
#427=LINE('',#1039,#492);
#428=LINE('',#1041,#493);
#429=LINE('',#1043,#494);
#430=LINE('',#1045,#495);
#431=LINE('',#1051,#496);
#432=LINE('',#1053,#497);
#433=LINE('',#1055,#498);
#434=LINE('',#1057,#499);
#435=LINE('',#1063,#500);
#436=LINE('',#1065,#501);
#437=LINE('',#1068,#502);
#438=LINE('',#1070,#503);
#439=LINE('',#1072,#504);
#440=LINE('',#1074,#505);
#441=LINE('',#1075,#506);
#442=LINE('',#1077,#507);
#443=LINE('',#1080,#508);
#444=LINE('',#1082,#509);
#445=LINE('',#1084,#510);
#446=LINE('',#1086,#511);
#447=LINE('',#1087,#512);
#448=LINE('',#1089,#513);
#449=LINE('',#1114,#514);
#450=LINE('',#1115,#515);
#451=LINE('',#1117,#516);
#452=LINE('',#1120,#517);
#453=LINE('',#1122,#518);
#454=LINE('',#1124,#519);
#455=LINE('',#1130,#520);
#456=LINE('',#1132,#521);
#457=LINE('',#1134,#522);
#458=LINE('',#1136,#523);
#459=LINE('',#1142,#524);
#460=LINE('',#1144,#525);
#461=LINE('',#1146,#526);
#462=LINE('',#1148,#527);
#463=LINE('',#1154,#528);
#464=LINE('',#1156,#529);
#465=LINE('',#1158,#530);
#466=LINE('',#1160,#531);
#467=LINE('',#1166,#532);
#468=LINE('',#1172,#533);
#469=LINE('',#1177,#534);
#470=LINE('',#1181,#535);
#471=LINE('',#1185,#536);
#472=LINE('',#1189,#537);
#473=LINE('',#1191,#538);
#474=LINE('',#1193,#539);
#475=LINE('',#1197,#540);
#476=LINE('',#1199,#541);
#477=LINE('',#1201,#542);
#478=LINE('',#1205,#543);
#479=LINE('',#1207,#544);
#480=LINE('',#1209,#545);
#481=LINE('',#1213,#546);
#482=LINE('',#1215,#547);
#483=LINE('',#1217,#548);
#484=VECTOR('',#808,1.);
#485=VECTOR('',#809,1.);
#486=VECTOR('',#810,1.);
#487=VECTOR('',#811,1.);
#488=VECTOR('',#814,1.);
#489=VECTOR('',#815,1.);
#490=VECTOR('',#816,1.);
#491=VECTOR('',#817,1.);
#492=VECTOR('',#824,1.);
#493=VECTOR('',#827,1.);
#494=VECTOR('',#828,1.);
#495=VECTOR('',#829,1.);
#496=VECTOR('',#836,1.);
#497=VECTOR('',#839,1.);
#498=VECTOR('',#840,1.);
#499=VECTOR('',#841,1.);
#500=VECTOR('',#848,1.);
#501=VECTOR('',#851,1.);
#502=VECTOR('',#852,1.);
#503=VECTOR('',#853,1.);
#504=VECTOR('',#854,1.);
#505=VECTOR('',#857,1.);
#506=VECTOR('',#858,1.);
#507=VECTOR('',#861,1.);
#508=VECTOR('',#862,1.);
#509=VECTOR('',#863,1.);
#510=VECTOR('',#864,1.);
#511=VECTOR('',#865,1.);
#512=VECTOR('',#866,1.);
#513=VECTOR('',#867,1.);
#514=VECTOR('',#900,1.);
#515=VECTOR('',#901,1.);
#516=VECTOR('',#904,1.);
#517=VECTOR('',#905,1.);
#518=VECTOR('',#906,1.);
#519=VECTOR('',#907,1.);
#520=VECTOR('',#914,1.);
#521=VECTOR('',#917,1.);
#522=VECTOR('',#918,1.);
#523=VECTOR('',#919,1.);
#524=VECTOR('',#926,1.);
#525=VECTOR('',#929,1.);
#526=VECTOR('',#930,1.);
#527=VECTOR('',#931,1.);
#528=VECTOR('',#938,1.);
#529=VECTOR('',#941,1.);
#530=VECTOR('',#942,1.);
#531=VECTOR('',#943,1.);
#532=VECTOR('',#954,1.);
#533=VECTOR('',#965,1.);
#534=VECTOR('',#968,1.);
#535=VECTOR('',#971,1.);
#536=VECTOR('',#974,1.);
#537=VECTOR('',#979,1.);
#538=VECTOR('',#980,1.);
#539=VECTOR('',#981,1.);
#540=VECTOR('',#986,1.);
#541=VECTOR('',#989,1.);
#542=VECTOR('',#990,1.);
#543=VECTOR('',#995,1.);
#544=VECTOR('',#998,1.);
#545=VECTOR('',#999,1.);
#546=VECTOR('',#1004,1.);
#547=VECTOR('',#1007,1.);
#548=VECTOR('',#1008,1.);
#549=EDGE_LOOP('',(#60,#61,#62,#63));
#550=EDGE_LOOP('',(#64,#65,#66,#67));
#551=EDGE_LOOP('',(#68,#69,#70,#71));
#552=EDGE_LOOP('',(#72,#73,#74,#75));
#553=EDGE_LOOP('',(#76,#77,#78,#79));
#554=EDGE_LOOP('',(#80,#81,#82,#83));
#555=EDGE_LOOP('',(#84,#85,#86,#87));
#556=EDGE_LOOP('',(#88,#89,#90,#91));
#557=EDGE_LOOP('',(#92,#93,#94,#95));
#558=EDGE_LOOP('',(#96,#97,#98,#99,#100,#101,#102,#103));
#559=EDGE_LOOP('',(#104));
#560=EDGE_LOOP('',(#105));
#561=EDGE_LOOP('',(#106));
#562=EDGE_LOOP('',(#107));
#563=EDGE_LOOP('',(#108));
#564=EDGE_LOOP('',(#109));
#565=EDGE_LOOP('',(#110,#111,#112,#113));
#566=EDGE_LOOP('',(#114));
#567=EDGE_LOOP('',(#115));
#568=EDGE_LOOP('',(#116,#117,#118,#119));
#569=EDGE_LOOP('',(#120,#121,#122,#123,#124,#125,#126,#127,#128,#129));
#570=EDGE_LOOP('',(#130));
#571=EDGE_LOOP('',(#131));
#572=EDGE_LOOP('',(#132));
#573=EDGE_LOOP('',(#133));
#574=EDGE_LOOP('',(#134,#135,#136,#137));
#575=EDGE_LOOP('',(#138,#139,#140,#141));
#576=EDGE_LOOP('',(#142,#143,#144,#145));
#577=EDGE_LOOP('',(#146,#147,#148,#149));
#578=EDGE_LOOP('',(#150,#151,#152,#153));
#579=EDGE_LOOP('',(#154,#155,#156,#157));
#580=EDGE_LOOP('',(#158,#159,#160,#161));
#581=EDGE_LOOP('',(#162,#163,#164,#165));
#582=EDGE_LOOP('',(#166,#167,#168,#169,#170,#171,#172,#173));
#583=EDGE_LOOP('',(#174,#175,#176,#177));
#584=EDGE_LOOP('',(#178,#179,#180,#181,#182,#183,#184,#185));
#585=EDGE_LOOP('',(#186,#187,#188,#189));
#586=EDGE_LOOP('',(#190));
#587=EDGE_LOOP('',(#191));
#588=EDGE_LOOP('',(#192));
#589=EDGE_LOOP('',(#193));
#590=EDGE_LOOP('',(#194,#195,#196,#197,#198,#199,#200,#201));
#591=EDGE_LOOP('',(#202,#203,#204,#205));
#592=EDGE_LOOP('',(#206,#207,#208,#209));
#593=EDGE_LOOP('',(#210,#211,#212,#213));
#594=EDGE_LOOP('',(#214,#215,#216,#217));
#595=EDGE_LOOP('',(#218,#219,#220,#221));
#596=EDGE_LOOP('',(#222,#223,#224,#225));
#597=EDGE_LOOP('',(#226,#227,#228,#229));
#598=EDGE_LOOP('',(#230,#231,#232,#233));
#599=EDGE_LOOP('',(#234,#235,#236,#237));
#600=EDGE_LOOP('',(#238,#239,#240,#241,#242,#243,#244,#245));
#601=EDGE_LOOP('',(#246,#247,#248,#249,#250,#251,#252,#253));
#602=FACE_BOUND('',#549,.T.);
#603=FACE_BOUND('',#550,.T.);
#604=FACE_BOUND('',#551,.T.);
#605=FACE_BOUND('',#552,.T.);
#606=FACE_BOUND('',#553,.T.);
#607=FACE_BOUND('',#554,.T.);
#608=FACE_BOUND('',#555,.T.);
#609=FACE_BOUND('',#556,.T.);
#610=FACE_BOUND('',#557,.T.);
#611=FACE_BOUND('',#558,.T.);
#612=FACE_BOUND('',#559,.T.);
#613=FACE_BOUND('',#560,.T.);
#614=FACE_BOUND('',#561,.T.);
#615=FACE_BOUND('',#562,.T.);
#616=FACE_BOUND('',#563,.T.);
#617=FACE_BOUND('',#564,.T.);
#618=FACE_BOUND('',#565,.T.);
#619=FACE_BOUND('',#566,.T.);
#620=FACE_BOUND('',#567,.T.);
#621=FACE_BOUND('',#568,.T.);
#622=FACE_BOUND('',#569,.T.);
#623=FACE_BOUND('',#570,.T.);
#624=FACE_BOUND('',#571,.T.);
#625=FACE_BOUND('',#572,.T.);
#626=FACE_BOUND('',#573,.T.);
#627=FACE_BOUND('',#574,.T.);
#628=FACE_BOUND('',#575,.T.);
#629=FACE_BOUND('',#576,.T.);
#630=FACE_BOUND('',#577,.T.);
#631=FACE_BOUND('',#578,.T.);
#632=FACE_BOUND('',#579,.T.);
#633=FACE_BOUND('',#580,.T.);
#634=FACE_BOUND('',#581,.T.);
#635=FACE_BOUND('',#582,.T.);
#636=FACE_BOUND('',#583,.T.);
#637=FACE_BOUND('',#584,.T.);
#638=FACE_BOUND('',#585,.T.);
#639=FACE_BOUND('',#586,.T.);
#640=FACE_BOUND('',#587,.T.);
#641=FACE_BOUND('',#588,.T.);
#642=FACE_BOUND('',#589,.T.);
#643=FACE_BOUND('',#590,.T.);
#644=FACE_BOUND('',#591,.T.);
#645=FACE_BOUND('',#592,.T.);
#646=FACE_BOUND('',#593,.T.);
#647=FACE_BOUND('',#594,.T.);
#648=FACE_BOUND('',#595,.T.);
#649=FACE_BOUND('',#596,.T.);
#650=FACE_BOUND('',#597,.T.);
#651=FACE_BOUND('',#598,.T.);
#652=FACE_BOUND('',#599,.T.);
#653=FACE_BOUND('',#600,.T.);
#654=FACE_BOUND('',#601,.T.);
#655=PLANE('',#732);
#656=PLANE('',#733);
#657=PLANE('',#737);
#658=PLANE('',#741);
#659=PLANE('',#745);
#660=PLANE('',#746);
#661=PLANE('',#747);
#662=PLANE('',#763);
#663=PLANE('',#764);
#664=PLANE('',#768);
#665=PLANE('',#772);
#666=PLANE('',#776);
#667=PLANE('',#780);
#668=PLANE('',#781);
#669=PLANE('',#782);
#670=PLANE('',#783);
#671=PLANE('',#784);
#672=PLANE('',#785);
#673=PLANE('',#786);
#674=PLANE('',#791);
#675=PLANE('',#794);
#676=PLANE('',#797);
#677=PLANE('',#800);
#678=PLANE('',#803);
#679=ADVANCED_FACE('',(#602),#655,.F.);
#680=ADVANCED_FACE('',(#603),#656,.F.);
#681=ADVANCED_FACE('',(#604),#44,.T.);
#682=ADVANCED_FACE('',(#605),#657,.F.);
#683=ADVANCED_FACE('',(#606),#45,.T.);
#684=ADVANCED_FACE('',(#607),#658,.T.);
#685=ADVANCED_FACE('',(#608),#46,.T.);
#686=ADVANCED_FACE('',(#609),#659,.F.);
#687=ADVANCED_FACE('',(#610),#660,.F.);
#688=ADVANCED_FACE('',(#611),#661,.T.);
#689=ADVANCED_FACE('',(#612,#613),#47,.F.);
#690=ADVANCED_FACE('',(#614,#615),#48,.F.);
#691=ADVANCED_FACE('',(#616,#617),#49,.F.);
#692=ADVANCED_FACE('',(#618),#50,.T.);
#693=ADVANCED_FACE('',(#619,#620),#51,.F.);
#694=ADVANCED_FACE('',(#621,#622,#623,#624,#625,#626),#662,.T.);
#695=ADVANCED_FACE('',(#627),#663,.F.);
#696=ADVANCED_FACE('',(#628),#52,.F.);
#697=ADVANCED_FACE('',(#629),#664,.F.);
#698=ADVANCED_FACE('',(#630),#53,.F.);
#699=ADVANCED_FACE('',(#631),#665,.T.);
#700=ADVANCED_FACE('',(#632),#54,.F.);
#701=ADVANCED_FACE('',(#633),#666,.T.);
#702=ADVANCED_FACE('',(#634),#55,.F.);
#703=ADVANCED_FACE('',(#635,#636),#667,.F.);
#704=ADVANCED_FACE('',(#637,#638),#668,.T.);
#705=ADVANCED_FACE('',(#639),#669,.T.);
#706=ADVANCED_FACE('',(#640),#670,.T.);
#707=ADVANCED_FACE('',(#641),#671,.T.);
#708=ADVANCED_FACE('',(#642),#672,.T.);
#709=ADVANCED_FACE('',(#643,#644),#673,.T.);
#710=ADVANCED_FACE('',(#645),#674,.F.);
#711=ADVANCED_FACE('',(#646),#56,.F.);
#712=ADVANCED_FACE('',(#647),#675,.F.);
#713=ADVANCED_FACE('',(#648),#57,.F.);
#714=ADVANCED_FACE('',(#649),#676,.T.);
#715=ADVANCED_FACE('',(#650),#58,.F.);
#716=ADVANCED_FACE('',(#651),#677,.T.);
#717=ADVANCED_FACE('',(#652),#59,.F.);
#718=ADVANCED_FACE('',(#653,#654),#678,.F.);
#719=CLOSED_SHELL('',(#679,#680,#681,#682,#683,#684,#685,#686,#687,#688,
#689,#690,#691,#692,#693,#694,#695,#696,#697,#698,#699,#700,#701,#702,#703,
#704,#705,#706,#707,#708,#709,#710,#711,#712,#713,#714,#715,#716,#717,#718));
#720=STYLED_ITEM('',(#721),#728);
#721=PRESENTATION_STYLE_ASSIGNMENT((#722));
#722=SURFACE_STYLE_USAGE(.BOTH.,#723);
#723=SURFACE_SIDE_STYLE('',(#724));
#724=SURFACE_STYLE_FILL_AREA(#725);
#725=FILL_AREA_STYLE('',(#726));
#726=FILL_AREA_STYLE_COLOUR('',#727);
#727=COLOUR_RGB('',0.615686274509804,0.811764705882353,0.929411764705882);
#728=MANIFOLD_SOLID_BREP('Part 1',#719);
#729=SHAPE_DEFINITION_REPRESENTATION(#1227,#730);
#730=SHAPE_REPRESENTATION('Part 1',(#731),#1222);
#731=AXIS2_PLACEMENT_3D('',#1015,#804,#805);
#732=AXIS2_PLACEMENT_3D('',#1016,#806,#807);
#733=AXIS2_PLACEMENT_3D('',#1025,#812,#813);
#734=AXIS2_PLACEMENT_3D('',#1034,#818,#819);
#735=AXIS2_PLACEMENT_3D('',#1035,#820,#821);
#736=AXIS2_PLACEMENT_3D('',#1037,#822,#823);
#737=AXIS2_PLACEMENT_3D('',#1040,#825,#826);
#738=AXIS2_PLACEMENT_3D('',#1046,#830,#831);
#739=AXIS2_PLACEMENT_3D('',#1047,#832,#833);
#740=AXIS2_PLACEMENT_3D('',#1049,#834,#835);
#741=AXIS2_PLACEMENT_3D('',#1052,#837,#838);
#742=AXIS2_PLACEMENT_3D('',#1058,#842,#843);
#743=AXIS2_PLACEMENT_3D('',#1059,#844,#845);
#744=AXIS2_PLACEMENT_3D('',#1061,#846,#847);
#745=AXIS2_PLACEMENT_3D('',#1064,#849,#850);
#746=AXIS2_PLACEMENT_3D('',#1073,#855,#856);
#747=AXIS2_PLACEMENT_3D('',#1076,#859,#860);
#748=AXIS2_PLACEMENT_3D('',#1090,#868,#869);
#749=AXIS2_PLACEMENT_3D('',#1091,#870,#871);
#750=AXIS2_PLACEMENT_3D('',#1093,#872,#873);
#751=AXIS2_PLACEMENT_3D('',#1095,#874,#875);
#752=AXIS2_PLACEMENT_3D('',#1096,#876,#877);
#753=AXIS2_PLACEMENT_3D('',#1098,#878,#879);
#754=AXIS2_PLACEMENT_3D('',#1100,#880,#881);
#755=AXIS2_PLACEMENT_3D('',#1101,#882,#883);
#756=AXIS2_PLACEMENT_3D('',#1103,#884,#885);
#757=AXIS2_PLACEMENT_3D('',#1105,#886,#887);
#758=AXIS2_PLACEMENT_3D('',#1106,#888,#889);
#759=AXIS2_PLACEMENT_3D('',#1107,#890,#891);
#760=AXIS2_PLACEMENT_3D('',#1108,#892,#893);
#761=AXIS2_PLACEMENT_3D('',#1109,#894,#895);
#762=AXIS2_PLACEMENT_3D('',#1111,#896,#897);
#763=AXIS2_PLACEMENT_3D('',#1113,#898,#899);
#764=AXIS2_PLACEMENT_3D('',#1116,#902,#903);
#765=AXIS2_PLACEMENT_3D('',#1125,#908,#909);
#766=AXIS2_PLACEMENT_3D('',#1126,#910,#911);
#767=AXIS2_PLACEMENT_3D('',#1128,#912,#913);
#768=AXIS2_PLACEMENT_3D('',#1131,#915,#916);
#769=AXIS2_PLACEMENT_3D('',#1137,#920,#921);
#770=AXIS2_PLACEMENT_3D('',#1138,#922,#923);
#771=AXIS2_PLACEMENT_3D('',#1140,#924,#925);
#772=AXIS2_PLACEMENT_3D('',#1143,#927,#928);
#773=AXIS2_PLACEMENT_3D('',#1149,#932,#933);
#774=AXIS2_PLACEMENT_3D('',#1150,#934,#935);
#775=AXIS2_PLACEMENT_3D('',#1152,#936,#937);
#776=AXIS2_PLACEMENT_3D('',#1155,#939,#940);
#777=AXIS2_PLACEMENT_3D('',#1161,#944,#945);
#778=AXIS2_PLACEMENT_3D('',#1162,#946,#947);
#779=AXIS2_PLACEMENT_3D('',#1163,#948,#949);
#780=AXIS2_PLACEMENT_3D('',#1164,#950,#951);
#781=AXIS2_PLACEMENT_3D('',#1165,#952,#953);
#782=AXIS2_PLACEMENT_3D('',#1167,#955,#956);
#783=AXIS2_PLACEMENT_3D('',#1168,#957,#958);
#784=AXIS2_PLACEMENT_3D('',#1169,#959,#960);
#785=AXIS2_PLACEMENT_3D('',#1170,#961,#962);
#786=AXIS2_PLACEMENT_3D('',#1171,#963,#964);
#787=AXIS2_PLACEMENT_3D('',#1175,#966,#967);
#788=AXIS2_PLACEMENT_3D('',#1179,#969,#970);
#789=AXIS2_PLACEMENT_3D('',#1183,#972,#973);
#790=AXIS2_PLACEMENT_3D('',#1187,#975,#976);
#791=AXIS2_PLACEMENT_3D('',#1188,#977,#978);
#792=AXIS2_PLACEMENT_3D('',#1194,#982,#983);
#793=AXIS2_PLACEMENT_3D('',#1195,#984,#985);
#794=AXIS2_PLACEMENT_3D('',#1198,#987,#988);
#795=AXIS2_PLACEMENT_3D('',#1202,#991,#992);
#796=AXIS2_PLACEMENT_3D('',#1203,#993,#994);
#797=AXIS2_PLACEMENT_3D('',#1206,#996,#997);
#798=AXIS2_PLACEMENT_3D('',#1210,#1000,#1001);
#799=AXIS2_PLACEMENT_3D('',#1211,#1002,#1003);
#800=AXIS2_PLACEMENT_3D('',#1214,#1005,#1006);
#801=AXIS2_PLACEMENT_3D('',#1218,#1009,#1010);
#802=AXIS2_PLACEMENT_3D('',#1219,#1011,#1012);
#803=AXIS2_PLACEMENT_3D('',#1220,#1013,#1014);
#804=DIRECTION('',(0.,0.,1.));
#805=DIRECTION('',(1.,0.,0.));
#806=DIRECTION('',(-1.,-7.90506900445127E-16,0.));
#807=DIRECTION('',(7.90506900445127E-16,-1.,0.));
#808=DIRECTION('',(0.,0.,-1.));
#809=DIRECTION('',(7.90506900445127E-16,-1.,0.));
#810=DIRECTION('',(0.,0.,1.));
#811=DIRECTION('',(7.90506900445127E-16,-1.,0.));
#812=DIRECTION('',(1.,6.62703350373162E-16,0.));
#813=DIRECTION('',(-6.62703350373162E-16,1.,0.));
#814=DIRECTION('',(-6.62703350373162E-16,1.,0.));
#815=DIRECTION('',(0.,0.,1.));
#816=DIRECTION('',(-6.62703350373162E-16,1.,0.));
#817=DIRECTION('',(0.,0.,1.));
#818=DIRECTION('',(0.,0.,1.));
#819=DIRECTION('',(1.,0.,0.));
#820=DIRECTION('',(0.,0.,1.));
#821=DIRECTION('',(-1.,0.,0.));
#822=DIRECTION('',(0.,0.,1.));
#823=DIRECTION('',(-1.,0.,0.));
#824=DIRECTION('',(0.,0.,1.));
#825=DIRECTION('',(-5.81573398424417E-16,1.,0.));
#826=DIRECTION('',(-1.,-5.81573398424417E-16,0.));
#827=DIRECTION('',(-1.,-5.81573398424417E-16,0.));
#828=DIRECTION('',(-1.,-5.81573398424417E-16,0.));
#829=DIRECTION('',(0.,0.,1.));
#830=DIRECTION('',(0.,0.,1.));
#831=DIRECTION('',(1.,0.,0.));
#832=DIRECTION('',(0.,0.,1.));
#833=DIRECTION('',(0.,-1.,0.));
#834=DIRECTION('',(0.,0.,1.));
#835=DIRECTION('',(0.,-1.,0.));
#836=DIRECTION('',(0.,0.,1.));
#837=DIRECTION('',(1.,9.35581200526817E-16,0.));
#838=DIRECTION('',(-9.35581200526818E-16,1.,0.));
#839=DIRECTION('',(-9.35581200526817E-16,1.,0.));
#840=DIRECTION('',(-9.35581200526817E-16,1.,0.));
#841=DIRECTION('',(0.,0.,1.));
#842=DIRECTION('',(0.,0.,1.));
#843=DIRECTION('',(1.,0.,0.));
#844=DIRECTION('',(0.,0.,1.));
#845=DIRECTION('',(1.,9.54097911787243E-15,0.));
#846=DIRECTION('',(0.,0.,1.));
#847=DIRECTION('',(1.,9.54097911787243E-15,0.));
#848=DIRECTION('',(0.,0.,1.));
#849=DIRECTION('',(1.,0.,0.));
#850=DIRECTION('',(0.,0.,-1.));
#851=DIRECTION('',(0.,1.,0.));
#852=DIRECTION('',(0.,0.,-1.));
#853=DIRECTION('',(0.,1.,0.));
#854=DIRECTION('',(0.,0.,1.));
#855=DIRECTION('',(9.97298746187284E-16,-1.,0.));
#856=DIRECTION('',(1.,9.97298746187284E-16,0.));
#857=DIRECTION('',(1.,9.97298746187284E-16,0.));
#858=DIRECTION('',(1.,9.97298746187284E-16,0.));
#859=DIRECTION('',(-3.46944695195362E-16,1.,0.));
#860=DIRECTION('',(-1.,-3.46944695195362E-16,0.));
#861=DIRECTION('',(-1.,-3.46944695195362E-16,0.));
#862=DIRECTION('',(0.,0.,-1.));
#863=DIRECTION('',(1.,0.,0.));
#864=DIRECTION('',(0.,0.,-1.));
#865=DIRECTION('',(-1.,-3.46944695195361E-16,0.));
#866=DIRECTION('',(-1.,-6.13722305346021E-16,0.));
#867=DIRECTION('',(0.,0.,1.));
#868=DIRECTION('',(0.,0.,1.));
#869=DIRECTION('',(1.,0.,0.));
#870=DIRECTION('',(0.,0.,1.));
#871=DIRECTION('',(1.,0.,0.));
#872=DIRECTION('',(0.,0.,1.));
#873=DIRECTION('',(1.,0.,0.));
#874=DIRECTION('',(0.,0.,1.));
#875=DIRECTION('',(1.,0.,0.));
#876=DIRECTION('',(0.,0.,1.));
#877=DIRECTION('',(1.,0.,0.));
#878=DIRECTION('',(0.,0.,1.));
#879=DIRECTION('',(1.,0.,0.));
#880=DIRECTION('',(0.,0.,1.));
#881=DIRECTION('',(1.,0.,0.));
#882=DIRECTION('',(0.,0.,1.));
#883=DIRECTION('',(1.,0.,0.));
#884=DIRECTION('',(0.,0.,1.));
#885=DIRECTION('',(1.,0.,0.));
#886=DIRECTION('',(0.,0.,1.));
#887=DIRECTION('',(1.,0.,0.));
#888=DIRECTION('',(0.,0.,1.));
#889=DIRECTION('',(-1.21430643318376E-15,1.,0.));
#890=DIRECTION('',(0.,0.,1.));
#891=DIRECTION('',(-1.21430643318376E-15,1.,0.));
#892=DIRECTION('',(0.,0.,1.));
#893=DIRECTION('',(1.,0.,0.));
#894=DIRECTION('',(0.,0.,1.));
#895=DIRECTION('',(1.,0.,0.));
#896=DIRECTION('',(0.,0.,1.));
#897=DIRECTION('',(1.,0.,0.));
#898=DIRECTION('',(0.,0.,1.));
#899=DIRECTION('',(1.,0.,0.));
#900=DIRECTION('',(1.,0.,0.));
#901=DIRECTION('',(1.,0.,0.));
#902=DIRECTION('',(-1.,0.,0.));
#903=DIRECTION('',(0.,0.,1.));
#904=DIRECTION('',(0.,0.,-1.));
#905=DIRECTION('',(0.,-1.,0.));
#906=DIRECTION('',(0.,0.,-1.));
#907=DIRECTION('',(0.,-1.,0.));
#908=DIRECTION('',(0.,-1.,0.));
#909=DIRECTION('',(0.,0.,-1.));
#910=DIRECTION('',(0.,-1.,0.));
#911=DIRECTION('',(0.,0.,1.));
#912=DIRECTION('',(0.,-1.,0.));
#913=DIRECTION('',(0.,0.,1.));
#914=DIRECTION('',(0.,-1.,0.));
#915=DIRECTION('',(0.,0.,1.));
#916=DIRECTION('',(1.,0.,0.));
#917=DIRECTION('',(-1.,0.,0.));
#918=DIRECTION('',(-1.,0.,0.));
#919=DIRECTION('',(0.,-1.,0.));
#920=DIRECTION('',(0.,-1.,0.));
#921=DIRECTION('',(0.,0.,-1.));
#922=DIRECTION('',(0.,-1.,0.));
#923=DIRECTION('',(1.,0.,0.));
#924=DIRECTION('',(0.,-1.,0.));
#925=DIRECTION('',(1.,0.,0.));
#926=DIRECTION('',(0.,-1.,0.));
#927=DIRECTION('',(-1.,0.,0.));
#928=DIRECTION('',(0.,0.,1.));
#929=DIRECTION('',(0.,0.,-1.));
#930=DIRECTION('',(0.,0.,-1.));
#931=DIRECTION('',(0.,-1.,0.));
#932=DIRECTION('',(0.,-1.,0.));
#933=DIRECTION('',(0.,0.,-1.));
#934=DIRECTION('',(0.,-1.,0.));
#935=DIRECTION('',(-1.73472347597681E-15,0.,-1.));
#936=DIRECTION('',(0.,-1.,0.));
#937=DIRECTION('',(-1.73472347597681E-15,0.,-1.));
#938=DIRECTION('',(0.,-1.,0.));
#939=DIRECTION('',(0.,0.,1.));
#940=DIRECTION('',(1.,0.,0.));
#941=DIRECTION('',(-1.,0.,0.));
#942=DIRECTION('',(-1.,0.,0.));
#943=DIRECTION('',(0.,-1.,0.));
#944=DIRECTION('',(0.,-1.,0.));
#945=DIRECTION('',(0.,0.,-1.));
#946=DIRECTION('',(0.,-1.,0.));
#947=DIRECTION('',(-1.,0.,0.));
#948=DIRECTION('',(0.,-1.,0.));
#949=DIRECTION('',(-1.,0.,0.));
#950=DIRECTION('',(0.,-1.,0.));
#951=DIRECTION('',(1.,0.,0.));
#952=DIRECTION('',(0.,-1.,0.));
#953=DIRECTION('',(1.,0.,0.));
#954=DIRECTION('',(1.,0.,0.));
#955=DIRECTION('',(0.,0.,1.));
#956=DIRECTION('',(1.,0.,0.));
#957=DIRECTION('',(0.,0.,1.));
#958=DIRECTION('',(1.,0.,0.));
#959=DIRECTION('',(0.,0.,1.));
#960=DIRECTION('',(1.,0.,0.));
#961=DIRECTION('',(0.,0.,1.));
#962=DIRECTION('',(1.,0.,0.));
#963=DIRECTION('',(0.,0.,1.));
#964=DIRECTION('',(1.,0.,0.));
#965=DIRECTION('',(0.,1.,0.));
#966=DIRECTION('',(0.,0.,1.));
#967=DIRECTION('',(0.,-1.,0.));
#968=DIRECTION('',(1.,0.,0.));
#969=DIRECTION('',(0.,0.,1.));
#970=DIRECTION('',(-1.,8.09537622122509E-15,0.));
#971=DIRECTION('',(0.,1.,0.));
#972=DIRECTION('',(0.,0.,1.));
#973=DIRECTION('',(0.,1.,0.));
#974=DIRECTION('',(1.,0.,0.));
#975=DIRECTION('',(0.,0.,1.));
#976=DIRECTION('',(0.0712470499879306,0.997458699830734,0.));
#977=DIRECTION('',(1.,0.,0.));
#978=DIRECTION('',(0.,0.,-1.));
#979=DIRECTION('',(0.,0.,1.));
#980=DIRECTION('',(0.,1.,0.));
#981=DIRECTION('',(0.,0.,1.));
#982=DIRECTION('',(0.,0.,1.));
#983=DIRECTION('',(1.,0.,0.));
#984=DIRECTION('',(0.,0.,1.));
#985=DIRECTION('',(0.,-1.,0.));
#986=DIRECTION('',(0.,0.,1.));
#987=DIRECTION('',(0.,-1.,0.));
#988=DIRECTION('',(0.,0.,-1.));
#989=DIRECTION('',(1.,0.,0.));
#990=DIRECTION('',(0.,0.,1.));
#991=DIRECTION('',(0.,0.,1.));
#992=DIRECTION('',(1.,0.,0.));
#993=DIRECTION('',(0.,0.,1.));
#994=DIRECTION('',(-1.,8.09537622122509E-15,0.));
#995=DIRECTION('',(0.,0.,1.));
#996=DIRECTION('',(1.,0.,0.));
#997=DIRECTION('',(0.,0.,-1.));
#998=DIRECTION('',(0.,1.,0.));
#999=DIRECTION('',(0.,0.,1.));
#1000=DIRECTION('',(0.,0.,1.));
#1001=DIRECTION('',(1.,0.,0.));
#1002=DIRECTION('',(0.,0.,1.));
#1003=DIRECTION('',(0.,1.,0.));
#1004=DIRECTION('',(0.,0.,1.));
#1005=DIRECTION('',(0.,-1.,0.));
#1006=DIRECTION('',(0.,0.,-1.));
#1007=DIRECTION('',(1.,0.,0.));
#1008=DIRECTION('',(0.,0.,1.));
#1009=DIRECTION('',(0.,0.,1.));
#1010=DIRECTION('',(1.,0.,0.));
#1011=DIRECTION('',(0.,0.,1.));
#1012=DIRECTION('',(0.0712470499879306,0.997458699830734,0.));
#1013=DIRECTION('',(0.,0.,1.));
#1014=DIRECTION('',(1.,0.,0.));
#1015=CARTESIAN_POINT('',(0.,0.,0.));
#1016=CARTESIAN_POINT('',(0.000758191314637618,-0.0194863412761688,-0.021));
#1017=CARTESIAN_POINT('',(0.000758191314637606,0.00025,-0.0104999281466007));
#1018=CARTESIAN_POINT('',(0.000758114201072573,0.00025,-8.67361737988404E-19));
#1019=CARTESIAN_POINT('',(0.000758191314637603,0.00025,-0.021));
#1020=CARTESIAN_POINT('',(0.000758191314637618,-0.0194863412761688,0.));
#1021=CARTESIAN_POINT('',(0.000758191314637634,-0.0392363412761688,0.));
#1022=CARTESIAN_POINT('',(0.000758191314637634,-0.0392363412761688,-0.021));
#1023=CARTESIAN_POINT('',(0.000758191314637634,-0.0392363412761688,-0.021));
#1024=CARTESIAN_POINT('',(0.000758191314637618,-0.0194863412761688,-0.021));
#1025=CARTESIAN_POINT('',(-0.00424180868536238,-0.0194863412761688,-0.021));
#1026=CARTESIAN_POINT('',(-0.00424180868536238,-0.0194863412761688,0.));
#1027=CARTESIAN_POINT('',(-0.00424180868536236,-0.0417363412761688,0.));
#1028=CARTESIAN_POINT('',(-0.00424180868536239,0.00276365872383117,0.));
#1029=CARTESIAN_POINT('',(-0.00424180868536239,0.00276365872383117,-0.021));
#1030=CARTESIAN_POINT('',(-0.00424180868536239,0.00276365872383117,-0.024));
#1031=CARTESIAN_POINT('',(-0.00424180868536238,-0.0194863412761688,-0.024));
#1032=CARTESIAN_POINT('',(-0.00424180868536236,-0.0417363412761688,-0.024));
#1033=CARTESIAN_POINT('',(-0.00424180868536236,-0.0417363412761688,-0.021));
#1034=CARTESIAN_POINT('',(-0.00174180868536236,-0.0417363412761688,-0.021));
#1035=CARTESIAN_POINT('',(-0.00174180868536236,-0.0417363412761688,0.));
#1036=CARTESIAN_POINT('',(-0.00174180868536236,-0.0442363412761689,0.));
#1037=CARTESIAN_POINT('',(-0.00174180868536236,-0.0417363412761688,-0.024));
#1038=CARTESIAN_POINT('',(-0.00174180868536236,-0.0442363412761689,-0.024));
#1039=CARTESIAN_POINT('',(-0.00174180868536236,-0.0442363412761689,-0.021));
#1040=CARTESIAN_POINT('',(0.0459831658248603,-0.0442363412761688,-0.021));
#1041=CARTESIAN_POINT('',(0.0459831658248603,-0.0442363412761688,0.));
#1042=CARTESIAN_POINT('',(0.093708140335083,-0.0442363412761688,0.));
#1043=CARTESIAN_POINT('',(0.0459831658248603,-0.0442363412761688,-0.024));
#1044=CARTESIAN_POINT('',(0.093708140335083,-0.0442363412761688,-0.024));
#1045=CARTESIAN_POINT('',(0.093708140335083,-0.0442363412761688,-0.021));
#1046=CARTESIAN_POINT('',(0.093708140335083,-0.0417363412761688,-0.021));
#1047=CARTESIAN_POINT('',(0.093708140335083,-0.0417363412761688,0.));
#1048=CARTESIAN_POINT('',(0.096208140335083,-0.0417363412761688,0.));
#1049=CARTESIAN_POINT('',(0.093708140335083,-0.0417363412761688,-0.024));
#1050=CARTESIAN_POINT('',(0.096208140335083,-0.0417363412761688,-0.024));
#1051=CARTESIAN_POINT('',(0.096208140335083,-0.0417363412761688,-0.021));
#1052=CARTESIAN_POINT('',(0.096208140335083,-0.0194863412761688,-0.021));
#1053=CARTESIAN_POINT('',(0.096208140335083,-0.0194863412761688,0.));
#1054=CARTESIAN_POINT('',(0.096208140335083,0.00276365872383121,0.));
#1055=CARTESIAN_POINT('',(0.096208140335083,-0.0194863412761688,-0.024));
#1056=CARTESIAN_POINT('',(0.096208140335083,0.00276365872383121,-0.024));
#1057=CARTESIAN_POINT('',(0.096208140335083,0.00276365872383121,-0.021));
#1058=CARTESIAN_POINT('',(0.093708140335083,0.00276365872383119,-0.021));
#1059=CARTESIAN_POINT('',(0.093708140335083,0.00276365872383119,0.));
#1060=CARTESIAN_POINT('',(0.093708140335083,0.00526365872383122,0.));
#1061=CARTESIAN_POINT('',(0.093708140335083,0.00276365872383119,-0.024));
#1062=CARTESIAN_POINT('',(0.093708140335083,0.00526365872383122,-0.024));
#1063=CARTESIAN_POINT('',(0.093708140335083,0.00526365872383122,-0.021));
#1064=CARTESIAN_POINT('',(0.091208140335083,0.00151365872383121,-0.021));
#1065=CARTESIAN_POINT('',(0.091208140335083,0.00151365872383121,0.));
#1066=CARTESIAN_POINT('',(0.091208140335083,-0.0392363412761688,0.));
#1067=CARTESIAN_POINT('',(0.0912080756235123,0.000249999999999997,0.));
#1068=CARTESIAN_POINT('',(0.091208140335083,0.00025,-0.021));
#1069=CARTESIAN_POINT('',(0.0912080756235123,0.00025,-0.0209999281466007));
#1070=CARTESIAN_POINT('',(0.091208140335083,0.00151365872383121,-0.021));
#1071=CARTESIAN_POINT('',(0.091208140335083,-0.0392363412761688,-0.021));
#1072=CARTESIAN_POINT('',(0.091208140335083,-0.0392363412761688,-0.021));
#1073=CARTESIAN_POINT('',(0.0459831658248603,-0.0392363412761688,-0.021));
#1074=CARTESIAN_POINT('',(0.0459831658248603,-0.0392363412761688,0.));
#1075=CARTESIAN_POINT('',(0.0459831658248603,-0.0392363412761688,-0.021));
#1076=CARTESIAN_POINT('',(-0.000491808685362399,0.00526365872383116,-0.021));
#1077=CARTESIAN_POINT('',(-0.000491808685362399,0.00526365872383116,0.));
#1078=CARTESIAN_POINT('',(0.000758114201072573,0.00525341468095779,-8.67361737988716E-19));
#1079=CARTESIAN_POINT('',(-0.00174180868536239,0.00526365872383116,0.));
#1080=CARTESIAN_POINT('',(0.000758037087507546,0.00525,-0.0104999281466007));
#1081=CARTESIAN_POINT('',(0.000758114201072573,0.00525857525822856,-0.0209999643437373));
#1082=CARTESIAN_POINT('',(0.0459830239997245,0.00525,-0.0209998562932015));
#1083=CARTESIAN_POINT('',(0.0912080756235123,0.00525856905738398,-0.0209999643002436));
#1084=CARTESIAN_POINT('',(0.0912080109119415,0.00525,-0.0104999281466007));
#1085=CARTESIAN_POINT('',(0.0912080756235123,0.0052534146809578,0.));
#1086=CARTESIAN_POINT('',(0.092458140335083,0.00526365872383121,0.));
#1087=CARTESIAN_POINT('',(0.0459831658248603,0.00526365872383119,-0.024));
#1088=CARTESIAN_POINT('',(-0.00174180868536239,0.00526365872383116,-0.024));
#1089=CARTESIAN_POINT('',(-0.00174180868536239,0.00526365872383116,-0.021));
#1090=CARTESIAN_POINT('',(0.093708140335083,-0.0417363412761688,-0.021));
#1091=CARTESIAN_POINT('',(0.093708140335083,-0.0417363412761688,-0.021));
#1092=CARTESIAN_POINT('',(0.095308140335083,-0.0417363412761688,-0.021));
#1093=CARTESIAN_POINT('',(0.093708140335083,-0.0417363412761688,0.));
#1094=CARTESIAN_POINT('',(0.095308140335083,-0.0417363412761688,0.));
#1095=CARTESIAN_POINT('',(0.093708140335083,0.00276365872383121,-0.021));
#1096=CARTESIAN_POINT('',(0.093708140335083,0.00276365872383121,-0.021));
#1097=CARTESIAN_POINT('',(0.095308140335083,0.00276365872383121,-0.021));
#1098=CARTESIAN_POINT('',(0.093708140335083,0.00276365872383121,0.));
#1099=CARTESIAN_POINT('',(0.095308140335083,0.00276365872383121,0.));
#1100=CARTESIAN_POINT('',(-0.00174180868536239,0.00276365872383117,-0.021));
#1101=CARTESIAN_POINT('',(-0.00174180868536239,0.00276365872383117,-0.021));
#1102=CARTESIAN_POINT('',(-0.000141808685362395,0.00276365872383117,-0.021));
#1103=CARTESIAN_POINT('',(-0.00174180868536239,0.00276365872383117,0.));
#1104=CARTESIAN_POINT('',(-0.000141808685362395,0.00276365872383117,0.));
#1105=CARTESIAN_POINT('',(-0.00174180868536239,0.00276365872383117,-0.021));
#1106=CARTESIAN_POINT('',(-0.00174180868536239,0.00276365872383117,0.));
#1107=CARTESIAN_POINT('',(-0.00174180868536239,0.00276365872383117,-0.024));
#1108=CARTESIAN_POINT('',(-0.00174180868536236,-0.0417363412761688,-0.021));
#1109=CARTESIAN_POINT('',(-0.00174180868536236,-0.0417363412761688,-0.021));
#1110=CARTESIAN_POINT('',(-0.00014180868536236,-0.0417363412761688,-0.021));
#1111=CARTESIAN_POINT('',(-0.00174180868536236,-0.0417363412761688,0.));
#1112=CARTESIAN_POINT('',(-0.00014180868536236,-0.0417363412761688,0.));
#1113=CARTESIAN_POINT('',(0.0459831658248603,-0.0194863412761688,0.));
#1114=CARTESIAN_POINT('',(0.0459830239997245,0.00025,0.));
#1115=CARTESIAN_POINT('',(0.0459830239997245,0.00525,0.));
#1116=CARTESIAN_POINT('',(0.0162673069566515,0.00525,-0.0108667552764433));
#1117=CARTESIAN_POINT('',(0.0162673069566515,0.00025,-0.0108667552764433));
#1118=CARTESIAN_POINT('',(0.0162673069566515,0.00025,-0.0102617552764433));
#1119=CARTESIAN_POINT('',(0.0162673069566515,0.00025,-0.0114717552764434));
#1120=CARTESIAN_POINT('',(0.0162673069566515,0.00525,-0.0114717552764434));
#1121=CARTESIAN_POINT('',(0.0162673069566515,0.00525,-0.0114717552764434));
#1122=CARTESIAN_POINT('',(0.0162673069566515,0.00525,-0.0108667552764433));
#1123=CARTESIAN_POINT('',(0.0162673069566515,0.00525,-0.0102617552764433));
#1124=CARTESIAN_POINT('',(0.0162673069566515,0.00525,-0.0102617552764433));
#1125=CARTESIAN_POINT('',(0.0182673069566515,0.00525,-0.0102617552764433));
#1126=CARTESIAN_POINT('',(0.0182673069566515,0.00025,-0.0102617552764433));
#1127=CARTESIAN_POINT('',(0.0182673069566515,0.00025,-0.00826175527644326));
#1128=CARTESIAN_POINT('',(0.0182673069566515,0.00525,-0.0102617552764433));
#1129=CARTESIAN_POINT('',(0.0182673069566515,0.00525,-0.00826175527644326));
#1130=CARTESIAN_POINT('',(0.0182673069566515,0.00525,-0.00826175527644326));
#1131=CARTESIAN_POINT('',(0.0217373069566515,0.00525,-0.00826175527644326));
#1132=CARTESIAN_POINT('',(0.0217373069566515,0.00025,-0.00826175527644326));
#1133=CARTESIAN_POINT('',(0.0252073069566515,0.00025,-0.00826175527644326));
#1134=CARTESIAN_POINT('',(0.0217373069566515,0.00525,-0.00826175527644326));
#1135=CARTESIAN_POINT('',(0.0252073069566515,0.00525,-0.00826175527644326));
#1136=CARTESIAN_POINT('',(0.0252073069566515,0.00525,-0.00826175527644326));
#1137=CARTESIAN_POINT('',(0.0252073069566515,0.00525,-0.0102617552764433));
#1138=CARTESIAN_POINT('',(0.0252073069566515,0.00025,-0.0102617552764433));
#1139=CARTESIAN_POINT('',(0.0272073069566515,0.00025,-0.0102617552764433));
#1140=CARTESIAN_POINT('',(0.0252073069566515,0.00525,-0.0102617552764433));
#1141=CARTESIAN_POINT('',(0.0272073069566515,0.00525,-0.0102617552764433));
#1142=CARTESIAN_POINT('',(0.0272073069566515,0.00525,-0.0102617552764433));
#1143=CARTESIAN_POINT('',(0.0272073069566515,0.00525,-0.0108667552764433));
#1144=CARTESIAN_POINT('',(0.0272073069566515,0.00025,-0.0108667552764433));
#1145=CARTESIAN_POINT('',(0.0272073069566515,0.00025,-0.0114717552764434));
#1146=CARTESIAN_POINT('',(0.0272073069566515,0.00525,-0.0108667552764433));
#1147=CARTESIAN_POINT('',(0.0272073069566515,0.00525,-0.0114717552764434));
#1148=CARTESIAN_POINT('',(0.0272073069566515,0.00525,-0.0114717552764434));
#1149=CARTESIAN_POINT('',(0.0252073069566515,0.00525,-0.0114717552764434));
#1150=CARTESIAN_POINT('',(0.0252073069566515,0.00025,-0.0114717552764434));
#1151=CARTESIAN_POINT('',(0.0252073069566515,0.00025,-0.0134717552764434));
#1152=CARTESIAN_POINT('',(0.0252073069566515,0.00525,-0.0114717552764434));
#1153=CARTESIAN_POINT('',(0.0252073069566515,0.00525,-0.0134717552764434));
#1154=CARTESIAN_POINT('',(0.0252073069566515,0.00525,-0.0134717552764434));
#1155=CARTESIAN_POINT('',(0.0217373069566515,0.00525,-0.0134717552764434));
#1156=CARTESIAN_POINT('',(0.0217373069566515,0.00025,-0.0134717552764434));
#1157=CARTESIAN_POINT('',(0.0182673069566515,0.00025,-0.0134717552764434));
#1158=CARTESIAN_POINT('',(0.0217373069566515,0.00525,-0.0134717552764434));
#1159=CARTESIAN_POINT('',(0.0182673069566515,0.00525,-0.0134717552764434));
#1160=CARTESIAN_POINT('',(0.0182673069566515,0.00525,-0.0134717552764434));
#1161=CARTESIAN_POINT('',(0.0182673069566515,0.00525,-0.0114717552764434));
#1162=CARTESIAN_POINT('',(0.0182673069566515,0.00025,-0.0114717552764434));
#1163=CARTESIAN_POINT('',(0.0182673069566515,0.00525,-0.0114717552764434));
#1164=CARTESIAN_POINT('',(0.0459830239997245,0.00525,-0.0104999281466007));
#1165=CARTESIAN_POINT('',(0.0459830239997245,0.00025,-0.0104999281466007));
#1166=CARTESIAN_POINT('',(0.0459831658248603,0.00025,-0.021));
#1167=CARTESIAN_POINT('',(0.0459831658248603,-0.0194863412761688,-0.021));
#1168=CARTESIAN_POINT('',(0.0459831658248603,-0.0194863412761688,-0.021));
#1169=CARTESIAN_POINT('',(0.0459831658248603,-0.0194863412761688,-0.021));
#1170=CARTESIAN_POINT('',(0.0459831658248603,-0.0194863412761688,-0.021));
#1171=CARTESIAN_POINT('',(0.0459831658248603,-0.0194863412761688,-0.021));
#1172=CARTESIAN_POINT('',(0.0560971618556976,-0.0108825058971495,-0.021));
#1173=CARTESIAN_POINT('',(0.0560971618556976,-0.0118825058971494,-0.021));
#1174=CARTESIAN_POINT('',(0.0560971618556976,-0.00988250589714945,-0.021));
#1175=CARTESIAN_POINT('',(0.0545971618556976,-0.0118825058971495,-0.021));
#1176=CARTESIAN_POINT('',(0.0545971618556976,-0.0133825058971494,-0.021));
#1177=CARTESIAN_POINT('',(0.0535971618556976,-0.0133825058971494,-0.021));
#1178=CARTESIAN_POINT('',(0.0525971618556976,-0.0133825058971494,-0.021));
#1179=CARTESIAN_POINT('',(0.0525971618556976,-0.0118825058971495,-0.021));
#1180=CARTESIAN_POINT('',(0.0510971618556976,-0.0118825058971494,-0.021));
#1181=CARTESIAN_POINT('',(0.0510971618556976,-0.0108825058971494,-0.021));
#1182=CARTESIAN_POINT('',(0.0510971618556976,-0.00988250589714945,-0.021));
#1183=CARTESIAN_POINT('',(0.0525971618556976,-0.00988250589714945,-0.021));
#1184=CARTESIAN_POINT('',(0.0525971618556976,-0.00838250589714945,-0.021));
#1185=CARTESIAN_POINT('',(0.0535971618556976,-0.00838250589714945,-0.021));
#1186=CARTESIAN_POINT('',(0.0545971618556976,-0.00838250589714945,-0.021));
#1187=CARTESIAN_POINT('',(0.0546971618556976,-0.00978250589714888,-0.021));
#1188=CARTESIAN_POINT('',(0.0560971618556976,-0.0108825058971495,-0.024));
#1189=CARTESIAN_POINT('',(0.0560971618556976,-0.00988250589714945,-0.024));
#1190=CARTESIAN_POINT('',(0.0560971618556976,-0.00988250589714945,-0.024));
#1191=CARTESIAN_POINT('',(0.0560971618556976,-0.0108825058971495,-0.024));
#1192=CARTESIAN_POINT('',(0.0560971618556976,-0.0118825058971494,-0.024));
#1193=CARTESIAN_POINT('',(0.0560971618556976,-0.0118825058971494,-0.024));
#1194=CARTESIAN_POINT('',(0.0545971618556976,-0.0118825058971495,-0.024));
#1195=CARTESIAN_POINT('',(0.0545971618556976,-0.0118825058971495,-0.024));
#1196=CARTESIAN_POINT('',(0.0545971618556976,-0.0133825058971494,-0.024));
#1197=CARTESIAN_POINT('',(0.0545971618556976,-0.0133825058971494,-0.024));
#1198=CARTESIAN_POINT('',(0.0535971618556976,-0.0133825058971494,-0.024));
#1199=CARTESIAN_POINT('',(0.0535971618556976,-0.0133825058971494,-0.024));
#1200=CARTESIAN_POINT('',(0.0525971618556976,-0.0133825058971494,-0.024));
#1201=CARTESIAN_POINT('',(0.0525971618556976,-0.0133825058971494,-0.024));
#1202=CARTESIAN_POINT('',(0.0525971618556976,-0.0118825058971495,-0.024));
#1203=CARTESIAN_POINT('',(0.0525971618556976,-0.0118825058971495,-0.024));
#1204=CARTESIAN_POINT('',(0.0510971618556976,-0.0118825058971494,-0.024));
#1205=CARTESIAN_POINT('',(0.0510971618556976,-0.0118825058971494,-0.024));
#1206=CARTESIAN_POINT('',(0.0510971618556976,-0.0108825058971494,-0.024));
#1207=CARTESIAN_POINT('',(0.0510971618556976,-0.0108825058971494,-0.024));
#1208=CARTESIAN_POINT('',(0.0510971618556976,-0.00988250589714945,-0.024));
#1209=CARTESIAN_POINT('',(0.0510971618556976,-0.00988250589714945,-0.024));
#1210=CARTESIAN_POINT('',(0.0525971618556976,-0.00988250589714945,-0.024));
#1211=CARTESIAN_POINT('',(0.0525971618556976,-0.00988250589714945,-0.024));
#1212=CARTESIAN_POINT('',(0.0525971618556976,-0.00838250589714945,-0.024));
#1213=CARTESIAN_POINT('',(0.0525971618556976,-0.00838250589714945,-0.024));
#1214=CARTESIAN_POINT('',(0.0535971618556976,-0.00838250589714945,-0.024));
#1215=CARTESIAN_POINT('',(0.0535971618556976,-0.00838250589714945,-0.024));
#1216=CARTESIAN_POINT('',(0.0545971618556976,-0.00838250589714945,-0.024));
#1217=CARTESIAN_POINT('',(0.0545971618556976,-0.00838250589714945,-0.024));
#1218=CARTESIAN_POINT('',(0.0546971618556976,-0.00978250589714888,-0.024));
#1219=CARTESIAN_POINT('',(0.0546971618556976,-0.00978250589714888,-0.024));
#1220=CARTESIAN_POINT('',(0.0459831658248603,-0.0194863412761688,-0.024));
#1221=MECHANICAL_DESIGN_GEOMETRIC_PRESENTATION_REPRESENTATION('',(#720),
#1222);
#1222=(
GEOMETRIC_REPRESENTATION_CONTEXT(3)
GLOBAL_UNCERTAINTY_ASSIGNED_CONTEXT((#1223))
GLOBAL_UNIT_ASSIGNED_CONTEXT((#1226,#1225,#1224))
REPRESENTATION_CONTEXT('Part 1','TOP_LEVEL_ASSEMBLY_PART')
);
#1223=UNCERTAINTY_MEASURE_WITH_UNIT(LENGTH_MEASURE(5.81301944918699E-5),
#1226,'DISTANCE_ACCURACY_VALUE','Maximum Tolerance applied to model');
#1224=(
NAMED_UNIT(*)
SI_UNIT($,.STERADIAN.)
SOLID_ANGLE_UNIT()
);
#1225=(
NAMED_UNIT(*)
PLANE_ANGLE_UNIT()
SI_UNIT($,.RADIAN.)
);
#1226=(
LENGTH_UNIT()
NAMED_UNIT(*)
SI_UNIT($,.METRE.)
);
#1227=PRODUCT_DEFINITION_SHAPE('','',#1228);
#1228=PRODUCT_DEFINITION('','',#1230,#1229);
#1229=PRODUCT_DEFINITION_CONTEXT('',#1236,'design');
#1230=PRODUCT_DEFINITION_FORMATION_WITH_SPECIFIED_SOURCE('','',#1232,
 .NOT_KNOWN.);
#1231=PRODUCT_RELATED_PRODUCT_CATEGORY('','',(#1232));
#1232=PRODUCT('Part 1','Part 1','Part 1',(#1234));
#1233=PRODUCT_CATEGORY('','');
#1234=PRODUCT_CONTEXT('',#1236,'mechanical');
#1235=APPLICATION_PROTOCOL_DEFINITION('international standard',
'ap242_managed_model_based_3d_engineering',2020,#1236);
#1236=APPLICATION_CONTEXT('managed model based 3d engineering');
ENDSEC;
END-ISO-10303-21;
