%TF.GenerationSoftware,KiCad,Pcbnew,10.0.6*%
%TF.CreationDate,2026-09-20T21:52:20+08:00*%
%TF.ProjectId,Mazokchist,4d617a6f-6b63-4686-9973-742e6b696361,rev?*%
%TF.SameCoordinates,Original*%
%TF.FileFunction,Drillmap*%
%TF.FilePolarity,Positive*%
%FSLAX45Y45*%
G04 Gerber Fmt 4.5, Leading zero omitted, Abs format (unit mm)*
G04 Created by KiCad (PCBNEW 10.0.6) date 2026-09-20 21:52:20*
%MOMM*%
%LPD*%
G01*
G04 APERTURE LIST*
%ADD10C,0.050000*%
%ADD11C,0.200000*%
%ADD12C,0.270000*%
G04 APERTURE END LIST*
D10*
X1750000Y-2000000D02*
X1750000Y-5300000D01*
X1750000Y-2000000D02*
G75*
G02*
X2000000Y-1750000I250000J0D01*
G01*
X2000000Y-5550000D02*
G75*
G02*
X1750000Y-5300000I0J250000D01*
G01*
X2000000Y-5550000D02*
X10450000Y-5550000D01*
X10450000Y-1750000D02*
X2000000Y-1750000D01*
X10450000Y-1750000D02*
G75*
G02*
X10700000Y-2000000I0J-250000D01*
G01*
X10700000Y-5300000D02*
G75*
G02*
X10450000Y-5550000I-250000J0D01*
G01*
X10700000Y-5300000D02*
X10700000Y-2000000D01*
D11*
D12*
X1865000Y-1865000D02*
X2135000Y-2135000D01*
X2135000Y-1865000D02*
X1865000Y-2135000D01*
X1865000Y-5165000D02*
X2135000Y-5435000D01*
X2135000Y-5165000D02*
X1865000Y-5435000D01*
X10315000Y-1865000D02*
X10585000Y-2135000D01*
X10585000Y-1865000D02*
X10315000Y-2135000D01*
X10315000Y-5165000D02*
X10585000Y-5435000D01*
X10585000Y-5165000D02*
X10315000Y-5435000D01*
D11*
X2008277Y-5863984D02*
X2008277Y-5663984D01*
X2008277Y-5663984D02*
X2055896Y-5663984D01*
X2055896Y-5663984D02*
X2084467Y-5673508D01*
X2084467Y-5673508D02*
X2103515Y-5692555D01*
X2103515Y-5692555D02*
X2113039Y-5711603D01*
X2113039Y-5711603D02*
X2122563Y-5749698D01*
X2122563Y-5749698D02*
X2122563Y-5778269D01*
X2122563Y-5778269D02*
X2113039Y-5816365D01*
X2113039Y-5816365D02*
X2103515Y-5835412D01*
X2103515Y-5835412D02*
X2084467Y-5854460D01*
X2084467Y-5854460D02*
X2055896Y-5863984D01*
X2055896Y-5863984D02*
X2008277Y-5863984D01*
X2208277Y-5863984D02*
X2208277Y-5730650D01*
X2208277Y-5768746D02*
X2217801Y-5749698D01*
X2217801Y-5749698D02*
X2227324Y-5740174D01*
X2227324Y-5740174D02*
X2246372Y-5730650D01*
X2246372Y-5730650D02*
X2265420Y-5730650D01*
X2332086Y-5863984D02*
X2332086Y-5730650D01*
X2332086Y-5663984D02*
X2322563Y-5673508D01*
X2322563Y-5673508D02*
X2332086Y-5683031D01*
X2332086Y-5683031D02*
X2341610Y-5673508D01*
X2341610Y-5673508D02*
X2332086Y-5663984D01*
X2332086Y-5663984D02*
X2332086Y-5683031D01*
X2455896Y-5863984D02*
X2436848Y-5854460D01*
X2436848Y-5854460D02*
X2427324Y-5835412D01*
X2427324Y-5835412D02*
X2427324Y-5663984D01*
X2560658Y-5863984D02*
X2541610Y-5854460D01*
X2541610Y-5854460D02*
X2532086Y-5835412D01*
X2532086Y-5835412D02*
X2532086Y-5663984D01*
X2789229Y-5863984D02*
X2789229Y-5663984D01*
X2789229Y-5663984D02*
X2855896Y-5806841D01*
X2855896Y-5806841D02*
X2922562Y-5663984D01*
X2922562Y-5663984D02*
X2922562Y-5863984D01*
X3103515Y-5863984D02*
X3103515Y-5759222D01*
X3103515Y-5759222D02*
X3093991Y-5740174D01*
X3093991Y-5740174D02*
X3074943Y-5730650D01*
X3074943Y-5730650D02*
X3036848Y-5730650D01*
X3036848Y-5730650D02*
X3017801Y-5740174D01*
X3103515Y-5854460D02*
X3084467Y-5863984D01*
X3084467Y-5863984D02*
X3036848Y-5863984D01*
X3036848Y-5863984D02*
X3017801Y-5854460D01*
X3017801Y-5854460D02*
X3008277Y-5835412D01*
X3008277Y-5835412D02*
X3008277Y-5816365D01*
X3008277Y-5816365D02*
X3017801Y-5797317D01*
X3017801Y-5797317D02*
X3036848Y-5787793D01*
X3036848Y-5787793D02*
X3084467Y-5787793D01*
X3084467Y-5787793D02*
X3103515Y-5778269D01*
X3198753Y-5730650D02*
X3198753Y-5930650D01*
X3198753Y-5740174D02*
X3217801Y-5730650D01*
X3217801Y-5730650D02*
X3255896Y-5730650D01*
X3255896Y-5730650D02*
X3274943Y-5740174D01*
X3274943Y-5740174D02*
X3284467Y-5749698D01*
X3284467Y-5749698D02*
X3293991Y-5768746D01*
X3293991Y-5768746D02*
X3293991Y-5825888D01*
X3293991Y-5825888D02*
X3284467Y-5844936D01*
X3284467Y-5844936D02*
X3274943Y-5854460D01*
X3274943Y-5854460D02*
X3255896Y-5863984D01*
X3255896Y-5863984D02*
X3217801Y-5863984D01*
X3217801Y-5863984D02*
X3198753Y-5854460D01*
X3379705Y-5844936D02*
X3389229Y-5854460D01*
X3389229Y-5854460D02*
X3379705Y-5863984D01*
X3379705Y-5863984D02*
X3370182Y-5854460D01*
X3370182Y-5854460D02*
X3379705Y-5844936D01*
X3379705Y-5844936D02*
X3379705Y-5863984D01*
X3379705Y-5740174D02*
X3389229Y-5749698D01*
X3389229Y-5749698D02*
X3379705Y-5759222D01*
X3379705Y-5759222D02*
X3370182Y-5749698D01*
X3370182Y-5749698D02*
X3379705Y-5740174D01*
X3379705Y-5740174D02*
X3379705Y-5759222D01*
X1547500Y-6092500D02*
X1747500Y-6292500D01*
X1747500Y-6092500D02*
X1547500Y-6292500D01*
X1998753Y-6103031D02*
X2008277Y-6093508D01*
X2008277Y-6093508D02*
X2027324Y-6083984D01*
X2027324Y-6083984D02*
X2074943Y-6083984D01*
X2074943Y-6083984D02*
X2093991Y-6093508D01*
X2093991Y-6093508D02*
X2103515Y-6103031D01*
X2103515Y-6103031D02*
X2113039Y-6122079D01*
X2113039Y-6122079D02*
X2113039Y-6141127D01*
X2113039Y-6141127D02*
X2103515Y-6169698D01*
X2103515Y-6169698D02*
X1989229Y-6283984D01*
X1989229Y-6283984D02*
X2113039Y-6283984D01*
X2198753Y-6264936D02*
X2208277Y-6274460D01*
X2208277Y-6274460D02*
X2198753Y-6283984D01*
X2198753Y-6283984D02*
X2189229Y-6274460D01*
X2189229Y-6274460D02*
X2198753Y-6264936D01*
X2198753Y-6264936D02*
X2198753Y-6283984D01*
X2274944Y-6083984D02*
X2408277Y-6083984D01*
X2408277Y-6083984D02*
X2322563Y-6283984D01*
X2522563Y-6083984D02*
X2541610Y-6083984D01*
X2541610Y-6083984D02*
X2560658Y-6093508D01*
X2560658Y-6093508D02*
X2570182Y-6103031D01*
X2570182Y-6103031D02*
X2579705Y-6122079D01*
X2579705Y-6122079D02*
X2589229Y-6160174D01*
X2589229Y-6160174D02*
X2589229Y-6207793D01*
X2589229Y-6207793D02*
X2579705Y-6245888D01*
X2579705Y-6245888D02*
X2570182Y-6264936D01*
X2570182Y-6264936D02*
X2560658Y-6274460D01*
X2560658Y-6274460D02*
X2541610Y-6283984D01*
X2541610Y-6283984D02*
X2522563Y-6283984D01*
X2522563Y-6283984D02*
X2503515Y-6274460D01*
X2503515Y-6274460D02*
X2493991Y-6264936D01*
X2493991Y-6264936D02*
X2484467Y-6245888D01*
X2484467Y-6245888D02*
X2474944Y-6207793D01*
X2474944Y-6207793D02*
X2474944Y-6160174D01*
X2474944Y-6160174D02*
X2484467Y-6122079D01*
X2484467Y-6122079D02*
X2493991Y-6103031D01*
X2493991Y-6103031D02*
X2503515Y-6093508D01*
X2503515Y-6093508D02*
X2522563Y-6083984D01*
X2713039Y-6083984D02*
X2732086Y-6083984D01*
X2732086Y-6083984D02*
X2751134Y-6093508D01*
X2751134Y-6093508D02*
X2760658Y-6103031D01*
X2760658Y-6103031D02*
X2770182Y-6122079D01*
X2770182Y-6122079D02*
X2779705Y-6160174D01*
X2779705Y-6160174D02*
X2779705Y-6207793D01*
X2779705Y-6207793D02*
X2770182Y-6245888D01*
X2770182Y-6245888D02*
X2760658Y-6264936D01*
X2760658Y-6264936D02*
X2751134Y-6274460D01*
X2751134Y-6274460D02*
X2732086Y-6283984D01*
X2732086Y-6283984D02*
X2713039Y-6283984D01*
X2713039Y-6283984D02*
X2693991Y-6274460D01*
X2693991Y-6274460D02*
X2684467Y-6264936D01*
X2684467Y-6264936D02*
X2674944Y-6245888D01*
X2674944Y-6245888D02*
X2665420Y-6207793D01*
X2665420Y-6207793D02*
X2665420Y-6160174D01*
X2665420Y-6160174D02*
X2674944Y-6122079D01*
X2674944Y-6122079D02*
X2684467Y-6103031D01*
X2684467Y-6103031D02*
X2693991Y-6093508D01*
X2693991Y-6093508D02*
X2713039Y-6083984D01*
X2865420Y-6283984D02*
X2865420Y-6150650D01*
X2865420Y-6169698D02*
X2874943Y-6160174D01*
X2874943Y-6160174D02*
X2893991Y-6150650D01*
X2893991Y-6150650D02*
X2922563Y-6150650D01*
X2922563Y-6150650D02*
X2941610Y-6160174D01*
X2941610Y-6160174D02*
X2951134Y-6179222D01*
X2951134Y-6179222D02*
X2951134Y-6283984D01*
X2951134Y-6179222D02*
X2960658Y-6160174D01*
X2960658Y-6160174D02*
X2979705Y-6150650D01*
X2979705Y-6150650D02*
X3008277Y-6150650D01*
X3008277Y-6150650D02*
X3027324Y-6160174D01*
X3027324Y-6160174D02*
X3036848Y-6179222D01*
X3036848Y-6179222D02*
X3036848Y-6283984D01*
X3132086Y-6283984D02*
X3132086Y-6150650D01*
X3132086Y-6169698D02*
X3141610Y-6160174D01*
X3141610Y-6160174D02*
X3160658Y-6150650D01*
X3160658Y-6150650D02*
X3189229Y-6150650D01*
X3189229Y-6150650D02*
X3208277Y-6160174D01*
X3208277Y-6160174D02*
X3217801Y-6179222D01*
X3217801Y-6179222D02*
X3217801Y-6283984D01*
X3217801Y-6179222D02*
X3227324Y-6160174D01*
X3227324Y-6160174D02*
X3246372Y-6150650D01*
X3246372Y-6150650D02*
X3274943Y-6150650D01*
X3274943Y-6150650D02*
X3293991Y-6160174D01*
X3293991Y-6160174D02*
X3303515Y-6179222D01*
X3303515Y-6179222D02*
X3303515Y-6283984D01*
X3693991Y-6074460D02*
X3522563Y-6331603D01*
X3951134Y-6083984D02*
X3970182Y-6083984D01*
X3970182Y-6083984D02*
X3989229Y-6093508D01*
X3989229Y-6093508D02*
X3998753Y-6103031D01*
X3998753Y-6103031D02*
X4008277Y-6122079D01*
X4008277Y-6122079D02*
X4017801Y-6160174D01*
X4017801Y-6160174D02*
X4017801Y-6207793D01*
X4017801Y-6207793D02*
X4008277Y-6245888D01*
X4008277Y-6245888D02*
X3998753Y-6264936D01*
X3998753Y-6264936D02*
X3989229Y-6274460D01*
X3989229Y-6274460D02*
X3970182Y-6283984D01*
X3970182Y-6283984D02*
X3951134Y-6283984D01*
X3951134Y-6283984D02*
X3932086Y-6274460D01*
X3932086Y-6274460D02*
X3922563Y-6264936D01*
X3922563Y-6264936D02*
X3913039Y-6245888D01*
X3913039Y-6245888D02*
X3903515Y-6207793D01*
X3903515Y-6207793D02*
X3903515Y-6160174D01*
X3903515Y-6160174D02*
X3913039Y-6122079D01*
X3913039Y-6122079D02*
X3922563Y-6103031D01*
X3922563Y-6103031D02*
X3932086Y-6093508D01*
X3932086Y-6093508D02*
X3951134Y-6083984D01*
X4103515Y-6264936D02*
X4113039Y-6274460D01*
X4113039Y-6274460D02*
X4103515Y-6283984D01*
X4103515Y-6283984D02*
X4093991Y-6274460D01*
X4093991Y-6274460D02*
X4103515Y-6264936D01*
X4103515Y-6264936D02*
X4103515Y-6283984D01*
X4303515Y-6283984D02*
X4189229Y-6283984D01*
X4246372Y-6283984D02*
X4246372Y-6083984D01*
X4246372Y-6083984D02*
X4227325Y-6112555D01*
X4227325Y-6112555D02*
X4208277Y-6131603D01*
X4208277Y-6131603D02*
X4189229Y-6141127D01*
X4427325Y-6083984D02*
X4446372Y-6083984D01*
X4446372Y-6083984D02*
X4465420Y-6093508D01*
X4465420Y-6093508D02*
X4474944Y-6103031D01*
X4474944Y-6103031D02*
X4484468Y-6122079D01*
X4484468Y-6122079D02*
X4493991Y-6160174D01*
X4493991Y-6160174D02*
X4493991Y-6207793D01*
X4493991Y-6207793D02*
X4484468Y-6245888D01*
X4484468Y-6245888D02*
X4474944Y-6264936D01*
X4474944Y-6264936D02*
X4465420Y-6274460D01*
X4465420Y-6274460D02*
X4446372Y-6283984D01*
X4446372Y-6283984D02*
X4427325Y-6283984D01*
X4427325Y-6283984D02*
X4408277Y-6274460D01*
X4408277Y-6274460D02*
X4398753Y-6264936D01*
X4398753Y-6264936D02*
X4389229Y-6245888D01*
X4389229Y-6245888D02*
X4379706Y-6207793D01*
X4379706Y-6207793D02*
X4379706Y-6160174D01*
X4379706Y-6160174D02*
X4389229Y-6122079D01*
X4389229Y-6122079D02*
X4398753Y-6103031D01*
X4398753Y-6103031D02*
X4408277Y-6093508D01*
X4408277Y-6093508D02*
X4427325Y-6083984D01*
X4665420Y-6083984D02*
X4627325Y-6083984D01*
X4627325Y-6083984D02*
X4608277Y-6093508D01*
X4608277Y-6093508D02*
X4598753Y-6103031D01*
X4598753Y-6103031D02*
X4579706Y-6131603D01*
X4579706Y-6131603D02*
X4570182Y-6169698D01*
X4570182Y-6169698D02*
X4570182Y-6245888D01*
X4570182Y-6245888D02*
X4579706Y-6264936D01*
X4579706Y-6264936D02*
X4589229Y-6274460D01*
X4589229Y-6274460D02*
X4608277Y-6283984D01*
X4608277Y-6283984D02*
X4646372Y-6283984D01*
X4646372Y-6283984D02*
X4665420Y-6274460D01*
X4665420Y-6274460D02*
X4674944Y-6264936D01*
X4674944Y-6264936D02*
X4684468Y-6245888D01*
X4684468Y-6245888D02*
X4684468Y-6198269D01*
X4684468Y-6198269D02*
X4674944Y-6179222D01*
X4674944Y-6179222D02*
X4665420Y-6169698D01*
X4665420Y-6169698D02*
X4646372Y-6160174D01*
X4646372Y-6160174D02*
X4608277Y-6160174D01*
X4608277Y-6160174D02*
X4589229Y-6169698D01*
X4589229Y-6169698D02*
X4579706Y-6179222D01*
X4579706Y-6179222D02*
X4570182Y-6198269D01*
X4751134Y-6083984D02*
X4874944Y-6083984D01*
X4874944Y-6083984D02*
X4808277Y-6160174D01*
X4808277Y-6160174D02*
X4836849Y-6160174D01*
X4836849Y-6160174D02*
X4855896Y-6169698D01*
X4855896Y-6169698D02*
X4865420Y-6179222D01*
X4865420Y-6179222D02*
X4874944Y-6198269D01*
X4874944Y-6198269D02*
X4874944Y-6245888D01*
X4874944Y-6245888D02*
X4865420Y-6264936D01*
X4865420Y-6264936D02*
X4855896Y-6274460D01*
X4855896Y-6274460D02*
X4836849Y-6283984D01*
X4836849Y-6283984D02*
X4779706Y-6283984D01*
X4779706Y-6283984D02*
X4760658Y-6274460D01*
X4760658Y-6274460D02*
X4751134Y-6264936D01*
X4951134Y-6083984D02*
X4951134Y-6122079D01*
X5027325Y-6083984D02*
X5027325Y-6122079D01*
X5322563Y-6360174D02*
X5313039Y-6350650D01*
X5313039Y-6350650D02*
X5293991Y-6322079D01*
X5293991Y-6322079D02*
X5284468Y-6303031D01*
X5284468Y-6303031D02*
X5274944Y-6274460D01*
X5274944Y-6274460D02*
X5265420Y-6226841D01*
X5265420Y-6226841D02*
X5265420Y-6188746D01*
X5265420Y-6188746D02*
X5274944Y-6141127D01*
X5274944Y-6141127D02*
X5284468Y-6112555D01*
X5284468Y-6112555D02*
X5293991Y-6093508D01*
X5293991Y-6093508D02*
X5313039Y-6064936D01*
X5313039Y-6064936D02*
X5322563Y-6055412D01*
X5484468Y-6150650D02*
X5484468Y-6283984D01*
X5436849Y-6074460D02*
X5389230Y-6217317D01*
X5389230Y-6217317D02*
X5513039Y-6217317D01*
X5741610Y-6283984D02*
X5741610Y-6083984D01*
X5827325Y-6283984D02*
X5827325Y-6179222D01*
X5827325Y-6179222D02*
X5817801Y-6160174D01*
X5817801Y-6160174D02*
X5798753Y-6150650D01*
X5798753Y-6150650D02*
X5770182Y-6150650D01*
X5770182Y-6150650D02*
X5751134Y-6160174D01*
X5751134Y-6160174D02*
X5741610Y-6169698D01*
X5951134Y-6283984D02*
X5932087Y-6274460D01*
X5932087Y-6274460D02*
X5922563Y-6264936D01*
X5922563Y-6264936D02*
X5913039Y-6245888D01*
X5913039Y-6245888D02*
X5913039Y-6188746D01*
X5913039Y-6188746D02*
X5922563Y-6169698D01*
X5922563Y-6169698D02*
X5932087Y-6160174D01*
X5932087Y-6160174D02*
X5951134Y-6150650D01*
X5951134Y-6150650D02*
X5979706Y-6150650D01*
X5979706Y-6150650D02*
X5998753Y-6160174D01*
X5998753Y-6160174D02*
X6008277Y-6169698D01*
X6008277Y-6169698D02*
X6017801Y-6188746D01*
X6017801Y-6188746D02*
X6017801Y-6245888D01*
X6017801Y-6245888D02*
X6008277Y-6264936D01*
X6008277Y-6264936D02*
X5998753Y-6274460D01*
X5998753Y-6274460D02*
X5979706Y-6283984D01*
X5979706Y-6283984D02*
X5951134Y-6283984D01*
X6132087Y-6283984D02*
X6113039Y-6274460D01*
X6113039Y-6274460D02*
X6103515Y-6255412D01*
X6103515Y-6255412D02*
X6103515Y-6083984D01*
X6284468Y-6274460D02*
X6265420Y-6283984D01*
X6265420Y-6283984D02*
X6227325Y-6283984D01*
X6227325Y-6283984D02*
X6208277Y-6274460D01*
X6208277Y-6274460D02*
X6198753Y-6255412D01*
X6198753Y-6255412D02*
X6198753Y-6179222D01*
X6198753Y-6179222D02*
X6208277Y-6160174D01*
X6208277Y-6160174D02*
X6227325Y-6150650D01*
X6227325Y-6150650D02*
X6265420Y-6150650D01*
X6265420Y-6150650D02*
X6284468Y-6160174D01*
X6284468Y-6160174D02*
X6293991Y-6179222D01*
X6293991Y-6179222D02*
X6293991Y-6198269D01*
X6293991Y-6198269D02*
X6198753Y-6217317D01*
X6370182Y-6274460D02*
X6389230Y-6283984D01*
X6389230Y-6283984D02*
X6427325Y-6283984D01*
X6427325Y-6283984D02*
X6446372Y-6274460D01*
X6446372Y-6274460D02*
X6455896Y-6255412D01*
X6455896Y-6255412D02*
X6455896Y-6245888D01*
X6455896Y-6245888D02*
X6446372Y-6226841D01*
X6446372Y-6226841D02*
X6427325Y-6217317D01*
X6427325Y-6217317D02*
X6398753Y-6217317D01*
X6398753Y-6217317D02*
X6379706Y-6207793D01*
X6379706Y-6207793D02*
X6370182Y-6188746D01*
X6370182Y-6188746D02*
X6370182Y-6179222D01*
X6370182Y-6179222D02*
X6379706Y-6160174D01*
X6379706Y-6160174D02*
X6398753Y-6150650D01*
X6398753Y-6150650D02*
X6427325Y-6150650D01*
X6427325Y-6150650D02*
X6446372Y-6160174D01*
X6522563Y-6360174D02*
X6532087Y-6350650D01*
X6532087Y-6350650D02*
X6551134Y-6322079D01*
X6551134Y-6322079D02*
X6560658Y-6303031D01*
X6560658Y-6303031D02*
X6570182Y-6274460D01*
X6570182Y-6274460D02*
X6579706Y-6226841D01*
X6579706Y-6226841D02*
X6579706Y-6188746D01*
X6579706Y-6188746D02*
X6570182Y-6141127D01*
X6570182Y-6141127D02*
X6560658Y-6112555D01*
X6560658Y-6112555D02*
X6551134Y-6093508D01*
X6551134Y-6093508D02*
X6532087Y-6064936D01*
X6532087Y-6064936D02*
X6522563Y-6055412D01*
X6884468Y-6360174D02*
X6874944Y-6350650D01*
X6874944Y-6350650D02*
X6855896Y-6322079D01*
X6855896Y-6322079D02*
X6846372Y-6303031D01*
X6846372Y-6303031D02*
X6836849Y-6274460D01*
X6836849Y-6274460D02*
X6827325Y-6226841D01*
X6827325Y-6226841D02*
X6827325Y-6188746D01*
X6827325Y-6188746D02*
X6836849Y-6141127D01*
X6836849Y-6141127D02*
X6846372Y-6112555D01*
X6846372Y-6112555D02*
X6855896Y-6093508D01*
X6855896Y-6093508D02*
X6874944Y-6064936D01*
X6874944Y-6064936D02*
X6884468Y-6055412D01*
X6960658Y-6150650D02*
X6960658Y-6283984D01*
X6960658Y-6169698D02*
X6970182Y-6160174D01*
X6970182Y-6160174D02*
X6989230Y-6150650D01*
X6989230Y-6150650D02*
X7017801Y-6150650D01*
X7017801Y-6150650D02*
X7036849Y-6160174D01*
X7036849Y-6160174D02*
X7046372Y-6179222D01*
X7046372Y-6179222D02*
X7046372Y-6283984D01*
X7170182Y-6283984D02*
X7151134Y-6274460D01*
X7151134Y-6274460D02*
X7141611Y-6264936D01*
X7141611Y-6264936D02*
X7132087Y-6245888D01*
X7132087Y-6245888D02*
X7132087Y-6188746D01*
X7132087Y-6188746D02*
X7141611Y-6169698D01*
X7141611Y-6169698D02*
X7151134Y-6160174D01*
X7151134Y-6160174D02*
X7170182Y-6150650D01*
X7170182Y-6150650D02*
X7198753Y-6150650D01*
X7198753Y-6150650D02*
X7217801Y-6160174D01*
X7217801Y-6160174D02*
X7227325Y-6169698D01*
X7227325Y-6169698D02*
X7236849Y-6188746D01*
X7236849Y-6188746D02*
X7236849Y-6245888D01*
X7236849Y-6245888D02*
X7227325Y-6264936D01*
X7227325Y-6264936D02*
X7217801Y-6274460D01*
X7217801Y-6274460D02*
X7198753Y-6283984D01*
X7198753Y-6283984D02*
X7170182Y-6283984D01*
X7293992Y-6150650D02*
X7370182Y-6150650D01*
X7322563Y-6083984D02*
X7322563Y-6255412D01*
X7322563Y-6255412D02*
X7332087Y-6274460D01*
X7332087Y-6274460D02*
X7351134Y-6283984D01*
X7351134Y-6283984D02*
X7370182Y-6283984D01*
X7589230Y-6150650D02*
X7589230Y-6350650D01*
X7589230Y-6160174D02*
X7608277Y-6150650D01*
X7608277Y-6150650D02*
X7646373Y-6150650D01*
X7646373Y-6150650D02*
X7665420Y-6160174D01*
X7665420Y-6160174D02*
X7674944Y-6169698D01*
X7674944Y-6169698D02*
X7684468Y-6188746D01*
X7684468Y-6188746D02*
X7684468Y-6245888D01*
X7684468Y-6245888D02*
X7674944Y-6264936D01*
X7674944Y-6264936D02*
X7665420Y-6274460D01*
X7665420Y-6274460D02*
X7646373Y-6283984D01*
X7646373Y-6283984D02*
X7608277Y-6283984D01*
X7608277Y-6283984D02*
X7589230Y-6274460D01*
X7798753Y-6283984D02*
X7779706Y-6274460D01*
X7779706Y-6274460D02*
X7770182Y-6255412D01*
X7770182Y-6255412D02*
X7770182Y-6083984D01*
X7960658Y-6283984D02*
X7960658Y-6179222D01*
X7960658Y-6179222D02*
X7951134Y-6160174D01*
X7951134Y-6160174D02*
X7932087Y-6150650D01*
X7932087Y-6150650D02*
X7893992Y-6150650D01*
X7893992Y-6150650D02*
X7874944Y-6160174D01*
X7960658Y-6274460D02*
X7941611Y-6283984D01*
X7941611Y-6283984D02*
X7893992Y-6283984D01*
X7893992Y-6283984D02*
X7874944Y-6274460D01*
X7874944Y-6274460D02*
X7865420Y-6255412D01*
X7865420Y-6255412D02*
X7865420Y-6236365D01*
X7865420Y-6236365D02*
X7874944Y-6217317D01*
X7874944Y-6217317D02*
X7893992Y-6207793D01*
X7893992Y-6207793D02*
X7941611Y-6207793D01*
X7941611Y-6207793D02*
X7960658Y-6198269D01*
X8027325Y-6150650D02*
X8103515Y-6150650D01*
X8055896Y-6083984D02*
X8055896Y-6255412D01*
X8055896Y-6255412D02*
X8065420Y-6274460D01*
X8065420Y-6274460D02*
X8084468Y-6283984D01*
X8084468Y-6283984D02*
X8103515Y-6283984D01*
X8246373Y-6274460D02*
X8227325Y-6283984D01*
X8227325Y-6283984D02*
X8189230Y-6283984D01*
X8189230Y-6283984D02*
X8170182Y-6274460D01*
X8170182Y-6274460D02*
X8160658Y-6255412D01*
X8160658Y-6255412D02*
X8160658Y-6179222D01*
X8160658Y-6179222D02*
X8170182Y-6160174D01*
X8170182Y-6160174D02*
X8189230Y-6150650D01*
X8189230Y-6150650D02*
X8227325Y-6150650D01*
X8227325Y-6150650D02*
X8246373Y-6160174D01*
X8246373Y-6160174D02*
X8255896Y-6179222D01*
X8255896Y-6179222D02*
X8255896Y-6198269D01*
X8255896Y-6198269D02*
X8160658Y-6217317D01*
X8427325Y-6283984D02*
X8427325Y-6083984D01*
X8427325Y-6274460D02*
X8408277Y-6283984D01*
X8408277Y-6283984D02*
X8370182Y-6283984D01*
X8370182Y-6283984D02*
X8351134Y-6274460D01*
X8351134Y-6274460D02*
X8341611Y-6264936D01*
X8341611Y-6264936D02*
X8332087Y-6245888D01*
X8332087Y-6245888D02*
X8332087Y-6188746D01*
X8332087Y-6188746D02*
X8341611Y-6169698D01*
X8341611Y-6169698D02*
X8351134Y-6160174D01*
X8351134Y-6160174D02*
X8370182Y-6150650D01*
X8370182Y-6150650D02*
X8408277Y-6150650D01*
X8408277Y-6150650D02*
X8427325Y-6160174D01*
X8503516Y-6360174D02*
X8513039Y-6350650D01*
X8513039Y-6350650D02*
X8532087Y-6322079D01*
X8532087Y-6322079D02*
X8541611Y-6303031D01*
X8541611Y-6303031D02*
X8551135Y-6274460D01*
X8551135Y-6274460D02*
X8560658Y-6226841D01*
X8560658Y-6226841D02*
X8560658Y-6188746D01*
X8560658Y-6188746D02*
X8551135Y-6141127D01*
X8551135Y-6141127D02*
X8541611Y-6112555D01*
X8541611Y-6112555D02*
X8532087Y-6093508D01*
X8532087Y-6093508D02*
X8513039Y-6064936D01*
X8513039Y-6064936D02*
X8503516Y-6055412D01*
M02*
