%TF.GenerationSoftware,KiCad,Pcbnew,10.0.6*%
%TF.CreationDate,2026-09-20T21:52:17+08:00*%
%TF.ProjectId,Mazokchist,4d617a6f-6b63-4686-9973-742e6b696361,rev?*%
%TF.SameCoordinates,Original*%
%TF.FileFunction,Copper,L1,Top*%
%TF.FilePolarity,Positive*%
%FSLAX46Y46*%
G04 Gerber Fmt 4.6, Leading zero omitted, Abs format (unit mm)*
G04 Created by KiCad (PCBNEW 10.0.6) date 2026-09-20 21:52:17*
%MOMM*%
%LPD*%
G01*
G04 APERTURE LIST*
G04 Aperture macros list*
%AMRoundRect*
0 Rectangle with rounded corners*
0 $1 Rounding radius*
0 $2 $3 $4 $5 $6 $7 $8 $9 X,Y pos of 4 corners*
0 Add a 4 corners polygon primitive as box body*
4,1,4,$2,$3,$4,$5,$6,$7,$8,$9,$2,$3,0*
0 Add four circle primitives for the rounded corners*
1,1,$1+$1,$2,$3*
1,1,$1+$1,$4,$5*
1,1,$1+$1,$6,$7*
1,1,$1+$1,$8,$9*
0 Add four rect primitives between the rounded corners*
20,1,$1+$1,$2,$3,$4,$5,0*
20,1,$1+$1,$4,$5,$6,$7,0*
20,1,$1+$1,$6,$7,$8,$9,0*
20,1,$1+$1,$8,$9,$2,$3,0*%
G04 Aperture macros list end*
%TA.AperFunction,ComponentPad*%
%ADD10C,1.524000*%
%TD*%
%TA.AperFunction,SMDPad,CuDef*%
%ADD11RoundRect,0.152400X1.063600X0.609600X-1.063600X0.609600X-1.063600X-0.609600X1.063600X-0.609600X0*%
%TD*%
%TA.AperFunction,SMDPad,CuDef*%
%ADD12RoundRect,0.152400X-1.063600X-0.609600X1.063600X-0.609600X1.063600X0.609600X-1.063600X0.609600X0*%
%TD*%
%TA.AperFunction,ComponentPad*%
%ADD13RoundRect,0.250000X-0.625000X0.350000X-0.625000X-0.350000X0.625000X-0.350000X0.625000X0.350000X0*%
%TD*%
%TA.AperFunction,ComponentPad*%
%ADD14O,1.750000X1.200000*%
%TD*%
%TA.AperFunction,ViaPad*%
%ADD15C,0.600000*%
%TD*%
%TA.AperFunction,Conductor*%
%ADD16C,0.500000*%
%TD*%
%TA.AperFunction,Conductor*%
%ADD17C,0.200000*%
%TD*%
G04 APERTURE END LIST*
D10*
%TO.P,U2,1,VCC_1*%
%TO.N,+3V3*%
X53872000Y-21500000D03*
%TO.P,U2,2,GND_2*%
%TO.N,GND*%
X53872000Y-24040000D03*
%TO.P,U2,3,SCL_3*%
%TO.N,/SCL*%
X53872000Y-26580000D03*
%TO.P,U2,4,SDA_4*%
%TO.N,/SDA*%
X53872000Y-29120000D03*
%TO.P,U2,5,SD0_5*%
%TO.N,GND*%
X53872000Y-31660000D03*
%TO.P,U2,6,CS_6*%
%TO.N,+3V3*%
X53872000Y-34200000D03*
%TD*%
D11*
%TO.P,U1,1,D0_1*%
%TO.N,/BUSY*%
X29545000Y-21000000D03*
D10*
X30380000Y-21000000D03*
D11*
%TO.P,U1,2,D1_2*%
%TO.N,/RST*%
X29545000Y-23540000D03*
D10*
X30380000Y-23540000D03*
D11*
%TO.P,U1,3,D2_3*%
%TO.N,/DC*%
X29545000Y-26080000D03*
D10*
X30380000Y-26080000D03*
D11*
%TO.P,U1,4,D3_4*%
%TO.N,/CS*%
X29545000Y-28620000D03*
D10*
X30380000Y-28620000D03*
D11*
%TO.P,U1,5,D4_5*%
%TO.N,/SDA*%
X29545000Y-31160000D03*
D10*
X30380000Y-31160000D03*
D11*
%TO.P,U1,6,D5_6*%
%TO.N,/SCL*%
X29545000Y-33700000D03*
D10*
X30380000Y-33700000D03*
D11*
%TO.P,U1,7,D6_7*%
%TO.N,unconnected-(U1-D6-Pad7)*%
X29545000Y-36240000D03*
D10*
X30380000Y-36240000D03*
%TO.P,U1,8,D7_8*%
%TO.N,unconnected-(U1-D7-Pad8)*%
X45620000Y-36240000D03*
D12*
X46455000Y-36240000D03*
D10*
%TO.P,U1,9,D8_9*%
%TO.N,/CLK*%
X45620000Y-33700000D03*
D12*
X46455000Y-33700000D03*
D10*
%TO.P,U1,10,D9_10*%
%TO.N,unconnected-(U1-D9-Pad10)*%
X45620000Y-31160000D03*
D12*
X46455000Y-31160000D03*
D10*
%TO.P,U1,11,D10_11*%
%TO.N,/DIN*%
X45620000Y-28620000D03*
D12*
X46455000Y-28620000D03*
D10*
%TO.P,U1,12,3V3_OUT_12*%
%TO.N,+3V3*%
X45620000Y-26080000D03*
D12*
X46455000Y-26080000D03*
D10*
%TO.P,U1,13,GND_13*%
%TO.N,GND*%
X45620000Y-23540000D03*
D12*
X46455000Y-23540000D03*
D10*
%TO.P,U1,14,VBUS_14*%
%TO.N,unconnected-(U1-VBUS-Pad14)*%
X45620000Y-21000000D03*
D12*
X46455000Y-21000000D03*
%TD*%
D13*
%TO.P,J1,1,Pin_1_1*%
%TO.N,+3V3*%
X22500000Y-30000000D03*
D14*
%TO.P,J1,2,Pin_2_2*%
%TO.N,GND*%
X22500000Y-32000000D03*
%TO.P,J1,3,Pin_3_3*%
%TO.N,/DIN*%
X22500000Y-34000000D03*
%TO.P,J1,4,Pin_4_4*%
%TO.N,/CLK*%
X22500000Y-36000000D03*
%TO.P,J1,5,Pin_5_5*%
%TO.N,/CS*%
X22500000Y-38000000D03*
%TO.P,J1,6,Pin_6_6*%
%TO.N,/DC*%
X22500000Y-40000000D03*
%TO.P,J1,7,Pin_7_7*%
%TO.N,/RST*%
X22500000Y-42000000D03*
%TO.P,J1,8,Pin_8_8*%
%TO.N,/BUSY*%
X22500000Y-44000000D03*
%TD*%
D15*
%TO.N,/CLK*%
X42500000Y-36500000D03*
%TO.N,/DIN*%
X41000000Y-36500000D03*
X41500000Y-33500000D03*
%TD*%
%TO.N,+3V3*%
D16*
X53044000Y-35028000D02*
X27528000Y-35028000D01*
X53872000Y-21500000D02*
X52000000Y-21500000D01*
X53872000Y-21500000D02*
X56000000Y-23628000D01*
X53872000Y-34200000D02*
X53044000Y-35028000D01*
X56000000Y-32072000D02*
X53872000Y-34200000D01*
X47420000Y-26080000D02*
X45620000Y-26080000D01*
X56000000Y-23628000D02*
X56000000Y-32072000D01*
X52000000Y-21500000D02*
X47420000Y-26080000D01*
X27528000Y-35028000D02*
X22500000Y-30000000D01*
%TO.N,/SCL*%
D17*
X53872000Y-26580000D02*
X53110001Y-27341999D01*
X36738001Y-27341999D02*
X30380000Y-33700000D01*
X53110001Y-27341999D02*
X36738001Y-27341999D01*
%TO.N,/BUSY*%
X20550000Y-44000000D02*
X18100000Y-41550000D01*
X22500000Y-44000000D02*
X20550000Y-44000000D01*
X18100000Y-27334314D02*
X24434314Y-21000000D01*
X18100000Y-41550000D02*
X18100000Y-27334314D01*
X24434314Y-21000000D02*
X30380000Y-21000000D01*
%TO.N,/RST*%
X18500000Y-39950000D02*
X18500000Y-27500000D01*
X22460000Y-23540000D02*
X30380000Y-23540000D01*
X22500000Y-42000000D02*
X20550000Y-42000000D01*
X18500000Y-27500000D02*
X22460000Y-23540000D01*
X20550000Y-42000000D02*
X18500000Y-39950000D01*
%TO.N,/DC*%
X21420000Y-26080000D02*
X30380000Y-26080000D01*
X20550000Y-40000000D02*
X19500000Y-38950000D01*
X22500000Y-40000000D02*
X20550000Y-40000000D01*
X19500000Y-38950000D02*
X19500000Y-28000000D01*
X19500000Y-28000000D02*
X21420000Y-26080000D01*
%TO.N,/CS*%
X20880000Y-28620000D02*
X30380000Y-28620000D01*
X20500000Y-29000000D02*
X20880000Y-28620000D01*
X20500000Y-36000000D02*
X20500000Y-29000000D01*
X22500000Y-38000000D02*
X20500000Y-36000000D01*
%TO.N,/CLK*%
X22500000Y-36000000D02*
X24500000Y-38000000D01*
X24500000Y-38000000D02*
X41000000Y-38000000D01*
X41000000Y-38000000D02*
X42500000Y-36500000D01*
%TO.N,/DIN*%
X40198000Y-37302000D02*
X41000000Y-36500000D01*
X22500000Y-34000000D02*
X25000000Y-36500000D01*
X25000000Y-36500000D02*
X25000000Y-37000000D01*
X41500000Y-33500000D02*
X41500000Y-32740000D01*
X25000000Y-37000000D02*
X25302000Y-37302000D01*
X25302000Y-37302000D02*
X40198000Y-37302000D01*
X41500000Y-32740000D02*
X45620000Y-28620000D01*
%TD*%
M02*
